<?xml version="1.0" encoding="UTF-8" standalone="no"?>
<!-- Created with Inkscape (http://www.inkscape.org/) -->

<svg
   xmlns:dc="http://purl.org/dc/elements/1.1/"
   xmlns:cc="http://creativecommons.org/ns#"
   xmlns:rdf="http://www.w3.org/1999/02/22-rdf-syntax-ns#"
   xmlns:svg="http://www.w3.org/2000/svg"
   xmlns="http://www.w3.org/2000/svg"
   xmlns:sodipodi="http://sodipodi.sourceforge.net/DTD/sodipodi-0.dtd"
   xmlns:inkscape="http://www.inkscape.org/namespaces/inkscape"
   width="226"
   height="51.599998"
   viewBox="0 0 226.00001 51.599998"
   version="1.1"
   id="svg8"
   inkscape:version="0.92.4 (5da689c313, 2019-01-14)"
   sodipodi:docname="alldesktops.svg">
  <sodipodi:namedview
     id="base"
     pagecolor="#ffffff"
     bordercolor="#666666"
     borderopacity="1.0"
     inkscape:pageopacity="0.0"
     inkscape:pageshadow="2"
     inkscape:zoom="2.8284271"
     inkscape:cx="163.41195"
     inkscape:cy="88.531886"
     inkscape:document-units="px"
     inkscape:current-layer="layer1"
     showgrid="false"
     units="px"
     inkscape:pagecheckerboard="true"
     inkscape:showpageshadow="false"
     inkscape:window-width="1920"
     inkscape:window-height="1028"
     inkscape:window-x="1366"
     inkscape:window-y="16"
     inkscape:window-maximized="1"
     inkscape:snap-global="true"
     fit-margin-top="5"
     fit-margin-left="5"
     fit-margin-right="5"
     fit-margin-bottom="5"
     inkscape:snap-midpoints="false"
     inkscape:snap-intersection-paths="false"
     showguides="true"
     inkscape:guide-bbox="true" />
  <defs
     id="defs2">
    <style
       id="current-color-scheme"
       type="text/css">
          .ColorScheme-Text {
          color:#31363b;
          }
          .ColorScheme-Background{
          
          }
          .ColorScheme-Highlight{
          
          }
          .ColorScheme-ViewText {
          color:#31363b;
          }
          .ColorScheme-ViewBackground{
          color:#fcfcfc;
          }
          .ColorScheme-ViewHover {
          
          }
          .ColorScheme-ViewFocus{
          
          }
          .ColorScheme-ButtonText {
          color:#31363b;
          }
          .ColorScheme-ButtonBackground{
          
          }
          .ColorScheme-ButtonHover {
          
          }
          .ColorScheme-ButtonFocus{
          
          }
      </style>
  </defs>
  <metadata
     id="metadata5">
    <rdf:RDF>
      <cc:Work
         rdf:about="">
        <dc:format>image/svg+xml</dc:format>
        <dc:type
           rdf:resource="http://purl.org/dc/dcmitype/StillImage" />
        <dc:title />
      </cc:Work>
    </rdf:RDF>
  </metadata>
  <g
     transform="translate(94.819999,-237.1)"
     id="layer1"
     inkscape:groupmode="layer"
     inkscape:label="Layer 1">
    <path
       inkscape:connector-curvature="0"
       id="inactive-center"
       d="m 40.979995,262.9 v -20.8 h 20.8 20.8 v 20.8 20.8 h -20.8 -20.8 z"
       style="fill:#dddddd;fill-opacity:1;stroke-width:0.31999999;opacity:0" />
    <path
       inkscape:connector-curvature="0"
       id="deactivated-center"
       d="M 84.579995,262.9 V 242.1 H 105.37999 126.18 v 20.8 20.8 h -20.8 -20.800005 z"
       style="fill:#dddddd;fill-opacity:1;stroke-width:0.31999999;opacity:0"
       inkscape:transform-center-x="60.858586"
       inkscape:transform-center-y="-17.929293" />
    <g
       id="active-center"
       transform="translate(-89.819999,242.1)">
      <path
         inkscape:connector-curvature="0"
         id="path8132"
         d="m 0,39.999998 v -1.6 H 19.199999 38.399998 V 19.199999 0 h 1.6 1.6 V 20.799999 41.599998 H 20.799999 0 Z m 22.399999,-9.599999 v -1.6 h 1.6 1.6 v -1.6 -1.6 h 1.6 1.6 v -1.6 -1.6 h 1.6 1.599999 v 4.8 4.799999 h -4.799999 -4.8 z M 6.3999997,7.9999996 V 6.3999997 H 7.9999996 9.5999995 V 7.9999996 9.5999995 H 7.9999996 6.3999997 Z"
         style="fill:#fbfbfb;stroke-width:0.31999999" />
      <path
         inkscape:connector-curvature="0"
         id="path8130"
         d="m 15.999999,30.399999 v -1.6 h 1.6 1.6 v -1.6 -1.6 h 3.2 3.2 v -3.2 -3.2 h 1.6 1.6 v -1.6 -1.6 h 1.6 1.599999 v 3.2 3.2 h -1.599999 -1.6 v 1.6 1.6 h -1.6 -1.6 v 1.6 1.6 h -1.6 -1.6 v 1.6 1.599999 h -3.2 -3.2 z"
         style="fill:#e2e2e2;stroke-width:0.31999999" />
      <path
         inkscape:connector-curvature="0"
         id="path8128"
         d="M 6.3999997,22.399999 V 9.5999995 H 7.9999996 9.5999995 V 7.9999996 6.3999997 H 22.399999 35.199998 v 1.5999999 1.5999999 h -1.6 -1.6 v 3.1999995 3.2 h -1.599999 -1.6 v 1.6 1.6 h -1.6 -1.6 v -3.2 -3.2 h 1.6 1.6 v -1.6 -1.5999995 h -9.6 -9.5999995 v 9.5999995 9.6 h 1.5999995 1.6 v -1.6 -1.6 h 3.2 3.2 v 1.6 1.6 h -1.6 -1.6 v 1.6 1.599999 h -3.2 -3.1999995 v 1.6 1.6 H 7.9999996 6.3999997 Z m 12.7999993,-1.6 v -1.6 h 1.6 1.6 v 1.6 1.6 h -1.6 -1.6 z"
         style="fill:#d4d4d4;stroke-width:0.31999999" />
      <path
         inkscape:connector-curvature="0"
         id="path8126"
         d="m 9.5999995,25.599999 v -3.2 h 1.5999995 1.6 v -1.6 -1.6 h 1.6 1.6 v 3.2 3.2 h -1.6 -1.6 v 1.6 1.6 h -1.6 -1.5999995 z m 9.5999995,-11.2 v -1.6 h 1.6 1.6 v -1.6 -1.5999995 h 3.2 3.2 v 1.5999995 1.6 h -1.6 -1.6 v 1.6 1.6 h -3.2 -3.2 z"
         style="fill:#c6c6c6;stroke-width:0.31999999" />
      <path
         inkscape:connector-curvature="0"
         id="path8124"
         d="m 9.5999995,19.199999 v -3.2 h 1.5999995 1.6 v -1.6 -1.6 h 1.6 1.6 v -1.6 -1.5999995 h 3.2 3.2 v 1.5999995 1.6 h -1.6 -1.6 v 1.6 1.6 h -1.6 -1.6 v 1.6 1.6 h -1.6 -1.6 v 1.6 1.6 h -1.6 -1.5999995 z"
         style="fill:#b7b7b7;stroke-width:0.31999999" />
      <path
         inkscape:connector-curvature="0"
         id="path8122"
         d="M 9.5999995,12.799999 V 9.5999995 h 3.1999995 3.2 v 1.5999995 1.6 h -1.6 -1.6 v 1.6 1.6 h -1.6 -1.5999995 z"
         style="fill:#a8a8a8;stroke-width:0.31999999" />
      <path
         inkscape:connector-curvature="0"
         id="path8120"
         d="M 0,19.199999 V 0 H 19.199999 38.399998 V 1.5999999 3.1999998 H 20.799999 3.1999998 V 20.799999 38.399998 H 1.5999999 0 Z m 9.5999995,14.399999 v -1.6 H 20.799999 31.999998 V 20.799999 9.5999995 h 1.6 1.6 V 22.399999 35.199998 H 22.399999 9.5999995 Z"
         style="fill:#999999;stroke-width:0.31999999" />
      <path
         inkscape:connector-curvature="0"
         id="path8118"
         d="M 3.1999998,20.799999 V 3.1999998 H 20.799999 38.399998 V 20.799999 38.399998 H 20.799999 3.1999998 Z m 31.9999982,0 V 6.3999997 H 20.799999 6.3999997 V 20.799999 35.199998 H 20.799999 35.199998 Z m -19.199999,0 v -4.8 h 4.8 4.8 v 4.8 4.8 h -4.8 -4.8 z m 6.4,0 v -1.6 h -1.6 -1.6 v 1.6 1.6 h 1.6 1.6 z"
         style="fill:#2c2c2c;stroke-width:0.31999999" />
    </g>
    <g
       id="hover-center"
       transform="translate(-46.220001,242.1)">
      <path
         inkscape:connector-curvature="0"
         id="path8132-1"
         d="m 0,39.999998 v -1.6 H 19.199999 38.399998 V 19.199999 0 h 1.6 1.6 V 20.799999 41.599998 H 20.799999 0 Z m 22.399999,-9.599999 v -1.6 h 1.6 1.6 v -1.6 -1.6 h 1.6 1.6 v -1.6 -1.6 h 1.6 1.599999 v 4.8 4.799999 h -4.799999 -4.8 z M 6.3999997,7.9999996 V 6.3999997 H 7.9999996 9.5999995 V 7.9999996 9.5999995 H 7.9999996 6.3999997 Z"
         style="fill:#fbfbfb;stroke-width:0.31999999" />
      <path
         inkscape:connector-curvature="0"
         id="path8130-2"
         d="m 15.999999,30.399999 v -1.6 h 1.6 1.6 v -1.6 -1.6 h 3.2 3.2 v -3.2 -3.2 h 1.6 1.6 v -1.6 -1.6 h 1.6 1.599999 v 3.2 3.2 h -1.599999 -1.6 v 1.6 1.6 h -1.6 -1.6 v 1.6 1.6 h -1.6 -1.6 v 1.6 1.599999 h -3.2 -3.2 z"
         style="fill:#e2e2e2;stroke-width:0.31999999" />
      <path
         inkscape:connector-curvature="0"
         id="path8128-7"
         d="M 6.3999997,22.399999 V 9.5999995 H 7.9999996 9.5999995 V 7.9999996 6.3999997 H 22.399999 35.199998 v 1.5999999 1.5999999 h -1.6 -1.6 v 3.1999995 3.2 h -1.599999 -1.6 v 1.6 1.6 h -1.6 -1.6 v -3.2 -3.2 h 1.6 1.6 v -1.6 -1.5999995 h -9.6 -9.5999995 v 9.5999995 9.6 h 1.5999995 1.6 v -1.6 -1.6 h 3.2 3.2 v 1.6 1.6 h -1.6 -1.6 v 1.6 1.599999 h -3.2 -3.1999995 v 1.6 1.6 H 7.9999996 6.3999997 Z m 12.7999993,-1.6 v -1.6 h 1.6 1.6 v 1.6 1.6 h -1.6 -1.6 z"
         style="fill:#d4d4d4;stroke-width:0.31999999" />
      <path
         inkscape:connector-curvature="0"
         id="path8126-0"
         d="m 9.5999995,25.599999 v -3.2 h 1.5999995 1.6 v -1.6 -1.6 h 1.6 1.6 v 3.2 3.2 h -1.6 -1.6 v 1.6 1.6 h -1.6 -1.5999995 z m 9.5999995,-11.2 v -1.6 h 1.6 1.6 v -1.6 -1.5999995 h 3.2 3.2 v 1.5999995 1.6 h -1.6 -1.6 v 1.6 1.6 h -3.2 -3.2 z"
         style="fill:#c6c6c6;stroke-width:0.31999999" />
      <path
         inkscape:connector-curvature="0"
         id="path8124-9"
         d="m 9.5999995,19.199999 v -3.2 h 1.5999995 1.6 v -1.6 -1.6 h 1.6 1.6 v -1.6 -1.5999995 h 3.2 3.2 v 1.5999995 1.6 h -1.6 -1.6 v 1.6 1.6 h -1.6 -1.6 v 1.6 1.6 h -1.6 -1.6 v 1.6 1.6 h -1.6 -1.5999995 z"
         style="fill:#b7b7b7;stroke-width:0.31999999" />
      <path
         inkscape:connector-curvature="0"
         id="path8122-3"
         d="M 9.5999995,12.799999 V 9.5999995 h 3.1999995 3.2 v 1.5999995 1.6 h -1.6 -1.6 v 1.6 1.6 h -1.6 -1.5999995 z"
         style="fill:#a8a8a8;stroke-width:0.31999999" />
      <path
         inkscape:connector-curvature="0"
         id="path8120-6"
         d="M 0,19.199999 V 0 H 19.199999 38.399998 V 1.5999999 3.1999998 H 20.799999 3.1999998 V 20.799999 38.399998 H 1.5999999 0 Z m 9.5999995,14.399999 v -1.6 H 20.799999 31.999998 V 20.799999 9.5999995 h 1.6 1.6 V 22.399999 35.199998 H 22.399999 9.5999995 Z"
         style="fill:#999999;stroke-width:0.31999999" />
      <path
         inkscape:connector-curvature="0"
         id="path8118-0"
         d="M 3.1999998,20.799999 V 3.1999998 H 20.799999 38.399998 V 20.799999 38.399998 H 20.799999 3.1999998 Z m 31.9999982,0 V 6.3999997 H 20.799999 6.3999997 V 20.799999 35.199998 H 20.799999 35.199998 Z m -19.199999,0 v -4.8 h 4.8 4.8 v 4.8 4.8 h -4.8 -4.8 z m 6.4,0 v -1.6 h -1.6 -1.6 v 1.6 1.6 h 1.6 1.6 z"
         style="fill:#2c2c2c;stroke-width:0.31999999" />
    </g>
    <g
       id="pressed-center"
       transform="translate(-2.620003,242.1)">
      <path
         inkscape:connector-curvature="0"
         id="path857-3-2"
         d="M 1.5999999,41.599998 H 0 v -1.6 -1.6 h 1.5999999 1.5999999 v 1.6 1.6 z M 39.999998,3.1999998 h -1.6 V 1.5999999 0 h 1.6 1.6 v 1.5999999 1.5999999 z"
         style="fill:#ffffff;stroke-width:0.31999999" />
      <path
         inkscape:connector-curvature="0"
         id="path855-6-6"
         d="M 22.399999,41.599998 H 3.1999998 v -1.6 -1.6 H 20.799999 38.399998 V 20.799999 3.1999998 h 1.6 1.6 V 22.399999 41.599998 Z"
         style="fill:#fefefe;stroke-width:0.31999999" />
      <path
         inkscape:connector-curvature="0"
         id="path853-1"
         d="m 30.399999,31.999998 h -1.6 v -1.599999 -1.6 h 1.6 1.599999 v 1.6 1.599999 z"
         style="fill:#c6c6c6;stroke-width:0.31999999" />
      <path
         inkscape:connector-curvature="0"
         id="path851-8"
         d="m 25.599999,31.999998 h -3.2 v -1.599999 -1.6 h 1.6 1.6 v -1.6 -1.6 h 1.6 1.6 v -1.6 -1.6 h 1.6 1.599999 v 3.2 3.2 h -1.599999 -1.6 v 1.6 1.599999 z"
         style="fill:#b7b7b7;stroke-width:0.31999999" />
      <path
         inkscape:connector-curvature="0"
         id="path849-7-7"
         d="m 23.999999,35.199998 h -11.2 v -1.6 -1.6 h 1.6 1.6 v -1.599999 -1.6 h 1.6 1.6 v -1.6 -1.6 h 3.2 3.2 v -3.2 -3.2 h 1.6 1.6 v -1.6 -1.6 h 1.6 1.599999 v -1.6 -1.6 h 1.6 1.6 v 11.2 11.199999 z m 3.2,-3.2 h 4.799999 v -4.799999 -4.8 h -1.599999 -1.6 v 1.6 1.6 h -1.6 -1.6 v 1.6 1.6 h -1.6 -1.6 v 1.6 1.599999 z"
         style="fill:#a8a8a8;stroke-width:0.31999999" />
      <path
         inkscape:connector-curvature="0"
         id="path847-5-9"
         d="M 1.5999999,38.399998 H 0 V 19.199999 0 H 19.199999 38.399998 V 1.5999999 3.1999998 H 20.799999 3.1999998 V 20.799999 38.399998 Z m 7.9999996,-3.2 H 6.3999997 v -1.6 -1.6 h 1.5999999 1.5999999 v -1.599999 -1.6 h 1.5999995 1.6 v -1.6 -1.6 h 3.2 3.2 v 1.6 1.6 h -1.6 -1.6 v 1.6 1.599999 h -1.6 -1.6 v 1.6 1.6 z M 20.799999,22.399999 h -1.6 v -1.6 -1.6 h 1.6 1.6 v 1.6 1.6 z m 6.4,-3.2 h -1.6 v -3.2 -3.2 h 1.6 1.6 v -1.6 -1.5999995 h 1.6 1.599999 V 7.9999996 6.3999997 h 1.6 1.6 v 3.1999998 3.1999995 h -1.6 -1.6 v 1.6 1.6 h -1.599999 -1.6 v 1.6 1.6 z"
         style="fill:#999999;stroke-width:0.31999999" />
      <path
         inkscape:connector-curvature="0"
         id="path845-3-2"
         d="M 7.9999996,31.999998 H 6.3999997 v -3.199999 -3.2 h 1.5999999 1.5999999 v -1.6 -1.6 h 1.5999995 1.6 v -1.6 -1.6 h 1.6 1.6 v 3.2 3.2 h -1.6 -1.6 v 1.6 1.6 h -1.6 -1.5999995 v 1.6 1.599999 z M 22.399999,15.999999 h -3.2 v -1.6 -1.6 h 1.6 1.6 v -1.6 -1.5999995 h 1.6 1.6 V 7.9999996 6.3999997 h 3.2 3.199999 v 1.5999999 1.5999999 h -1.599999 -1.6 v 1.5999995 1.6 h -1.6 -1.6 v 1.6 1.6 z"
         style="fill:#898989;stroke-width:0.31999999" />
      <path
         inkscape:connector-curvature="0"
         id="path843-5-0"
         d="M 7.9999996,25.599999 H 6.3999997 v -3.2 -3.2 h 1.5999999 1.5999999 v -1.6 -1.6 h 1.5999995 1.6 v -1.6 -1.6 h 1.6 1.6 v -1.6 -1.5999995 h 1.6 1.6 V 7.9999996 6.3999997 h 3.2 3.2 v 1.5999999 1.5999999 h -1.6 -1.6 v 1.5999995 1.6 h -1.6 -1.6 v 1.6 1.6 h -1.6 -1.6 v 1.6 1.6 h -1.6 -1.6 v 1.6 1.6 h -1.6 -1.5999995 v 1.6 1.6 z"
         style="fill:#787878;stroke-width:0.31999999" />
      <path
         inkscape:connector-curvature="0"
         id="path841-6-2"
         d="M 7.9999996,19.199999 H 6.3999997 v -3.2 -3.2 h 1.5999999 1.5999999 v -1.6 -1.5999995 h 1.5999995 1.6 V 7.9999996 6.3999997 h 3.2 3.2 v 1.5999999 1.5999999 h -1.6 -1.6 v 1.5999995 1.6 h -1.6 -1.6 v 1.6 1.6 h -1.6 -1.5999995 v 1.6 1.6 z"
         style="fill:#676767;stroke-width:0.31999999" />
      <path
         inkscape:connector-curvature="0"
         id="path839-2-3"
         d="M 7.9999996,12.799999 H 6.3999997 V 9.5999995 6.3999997 h 3.1999998 3.1999995 v 1.5999999 1.5999999 h -1.6 -1.5999995 v 1.5999995 1.6 z"
         style="fill:#555555;stroke-width:0.31999999" />
      <path
         inkscape:connector-curvature="0"
         id="path837-7"
         d="M 20.799999,38.399998 H 3.1999998 V 20.799999 3.1999998 H 20.799999 38.399998 V 20.799999 38.399998 Z m 0,-3.2 H 35.199998 V 20.799999 6.3999997 H 20.799999 6.3999997 V 20.799999 35.199998 Z m 0,-9.599999 h -4.8 v -4.8 -4.8 h 4.8 4.8 v 4.8 4.8 z m 0,-3.2 h 1.6 v -1.6 -1.6 h -1.6 -1.6 v 1.6 1.6 z"
         style="fill:#2c2c2c;stroke-width:0.31999999" />
    </g>
  </g>
</svg>
