<?xml version="1.0" encoding="UTF-8" standalone="no"?>
<!-- Created with Inkscape (http://www.inkscape.org/) -->

<svg
   xmlns:dc="http://purl.org/dc/elements/1.1/"
   xmlns:cc="http://creativecommons.org/ns#"
   xmlns:rdf="http://www.w3.org/1999/02/22-rdf-syntax-ns#"
   xmlns:svg="http://www.w3.org/2000/svg"
   xmlns="http://www.w3.org/2000/svg"
   xmlns:sodipodi="http://sodipodi.sourceforge.net/DTD/sodipodi-0.dtd"
   xmlns:inkscape="http://www.inkscape.org/namespaces/inkscape"
   width="229.22627"
   height="51.63839"
   viewBox="0 0 229.22628 51.638389"
   version="1.1"
   id="svg823"
   inkscape:version="0.92.4 (5da689c313, 2019-01-14)"
   sodipodi:docname="close.svg">
  <defs
     id="defs817" />
  <style
     id="current-color-scheme"
     type="text/css">
      .ColorScheme-Text {
      }
      .ColorScheme-Background{
      }
      .ColorScheme-Highlight{
      }
      .ColorScheme-ViewText {
      }
      .ColorScheme-ViewBackground{
      }
      .ColorScheme-ViewHover {
      }
      .ColorScheme-ViewFocus{
      }
      .ColorScheme-ButtonText {
      }
      .ColorScheme-ButtonBackground{
      }
      .ColorScheme-ButtonHover {
      }
      .ColorScheme-ButtonFocus{
      }
  </style>
  <sodipodi:namedview
     id="base"
     pagecolor="#ffffff"
     bordercolor="#666666"
     borderopacity="1.0"
     inkscape:pageopacity="0.0"
     inkscape:pageshadow="2"
     inkscape:zoom="3.96"
     inkscape:cx="125.68864"
     inkscape:cy="18.203255"
     inkscape:document-units="px"
     inkscape:current-layer="layer1"
     showgrid="false"
     units="px"
     inkscape:pagecheckerboard="true"
     inkscape:showpageshadow="false"
     fit-margin-top="5"
     fit-margin-left="5"
     fit-margin-right="5"
     fit-margin-bottom="5"
     inkscape:window-width="1920"
     inkscape:window-height="1028"
     inkscape:window-x="1366"
     inkscape:window-y="16"
     inkscape:window-maximized="1" />
  <metadata
     id="metadata820">
    <rdf:RDF>
      <cc:Work
         rdf:about="">
        <dc:format>image/svg+xml</dc:format>
        <dc:type
           rdf:resource="http://purl.org/dc/dcmitype/StillImage" />
        <dc:title></dc:title>
      </cc:Work>
    </rdf:RDF>
  </metadata>
  <g
     inkscape:label="Layer 1"
     inkscape:groupmode="layer"
     id="layer1"
     transform="translate(400.79192,-464.7303)">
    <g
       id="active-center"
       transform="translate(-395.79192,469.76869)">
      <path
         inkscape:connector-curvature="0"
         id="path849"
         d="m 0,39.999998 v -1.6 H 19.199999 38.399998 V 19.199999 0 h 1.6 1.6 V 20.799999 41.599998 H 20.799999 0 Z m 28.799999,-9.599999 v -1.6 h 1.6 1.599999 v 1.6 1.599999 h -1.599999 -1.6 z M 6.3999997,7.9999996 V 6.3999997 H 7.9999996 9.5999995 V 7.9999996 9.5999995 H 7.9999996 6.3999997 Z"
         style="fill:#fefefe;stroke-width:0.31999999" />
      <path
         inkscape:connector-curvature="0"
         id="path847"
         d="m 22.399999,30.399999 v -1.6 h 1.6 1.6 v -1.6 -1.6 h 1.6 1.6 v -1.6 -1.6 h 1.6 1.599999 v 3.2 3.2 h -1.599999 -1.6 v 1.6 1.599999 h -3.2 -3.2 z"
         style="fill:#eeeeee;stroke-width:0.31999999" />
      <path
         inkscape:connector-curvature="0"
         id="path845"
         d="m 15.999999,30.399999 v -1.6 h 1.6 1.6 v -1.6 -1.6 h 1.6 1.6 v -1.6 -1.6 h 1.6 1.6 v -1.6 -1.6 h 1.6 1.6 v -1.6 -1.6 h 1.6 1.599999 v 3.2 3.2 h -1.599999 -1.6 v 1.6 1.6 h -1.6 -1.6 v 1.6 1.6 h -1.6 -1.6 v 1.6 1.599999 h -3.2 -3.2 z"
         style="fill:#dddddd;stroke-width:0.31999999" />
      <path
         inkscape:connector-curvature="0"
         id="path843"
         d="M 6.3999997,22.399999 V 9.5999995 H 7.9999996 9.5999995 V 7.9999996 6.3999997 H 22.399999 35.199998 v 1.5999999 1.5999999 h -1.6 -1.6 v 3.1999995 3.2 h -1.599999 -1.6 v 1.6 1.6 h -1.6 -1.6 v 1.6 1.6 h -1.6 -1.6 v 1.6 1.6 h -1.6 -1.6 v 1.6 1.6 h -1.6 -1.6 v 1.6 1.599999 h -3.2 -3.1999995 v 1.6 1.6 H 7.9999996 6.3999997 Z m 6.3999993,4.8 v -1.6 h 1.6 1.6 v -1.6 -1.6 h 1.6 1.6 v -1.6 -1.6 h 1.6 1.6 v -1.6 -1.6 h 1.6 1.6 v -1.6 -1.6 h 1.6 1.6 v -1.6 -1.5999995 h -9.6 -9.5999995 v 9.5999995 9.6 h 1.5999995 1.6 z"
         style="fill:#cccccc;stroke-width:0.31999999" />
      <path
         inkscape:connector-curvature="0"
         id="path841"
         d="m 9.5999995,25.599999 v -3.2 h 1.5999995 1.6 v -1.6 -1.6 h 1.6 1.6 v -1.6 -1.6 h 1.6 1.6 v -1.6 -1.6 h 1.6 1.6 v -1.6 -1.5999995 h 3.2 3.2 v 1.5999995 1.6 h -1.6 -1.6 v 1.6 1.6 h -1.6 -1.6 v 1.6 1.6 h -1.6 -1.6 v 1.6 1.6 h -1.6 -1.6 v 1.6 1.6 h -1.6 -1.6 v 1.6 1.6 h -1.6 -1.5999995 z"
         style="fill:#bbbbbb;stroke-width:0.31999999" />
      <path
         inkscape:connector-curvature="0"
         id="path839"
         d="m 9.5999995,19.199999 v -3.2 h 1.5999995 1.6 v -1.6 -1.6 h 1.6 1.6 v -1.6 -1.5999995 h 3.2 3.2 v 1.5999995 1.6 h -1.6 -1.6 v 1.6 1.6 h -1.6 -1.6 v 1.6 1.6 h -1.6 -1.6 v 1.6 1.6 h -1.6 -1.5999995 z"
         style="fill:#aaaaaa;stroke-width:0.31999999" />
      <path
         inkscape:connector-curvature="0"
         id="path837-3"
         d="M 0,19.199999 V 0 H 19.199999 38.399998 V 1.5999999 3.1999998 H 20.799999 3.1999998 V 20.799999 38.399998 H 1.5999999 0 Z m 9.5999995,14.399999 v -1.6 H 20.799999 31.999998 V 20.799999 9.5999995 h 1.6 1.6 V 22.399999 35.199998 H 22.399999 9.5999995 Z m 0,-20.799999 V 9.5999995 h 3.1999995 3.2 v 1.5999995 1.6 h -1.6 -1.6 v 1.6 1.6 h -1.6 -1.5999995 z"
         style="fill:#898989;stroke-width:0.31999999" />
      <path
         inkscape:connector-curvature="0"
         id="path835-6"
         d="M 3.1999998,20.799999 V 3.1999998 H 20.799999 38.399998 V 20.799999 38.399998 H 20.799999 3.1999998 Z m 31.9999982,0 V 6.3999997 H 20.799999 6.3999997 V 20.799999 35.199998 H 20.799999 35.199998 Z"
         style="fill:#1b1b1b;stroke-width:0.31999999" />
    </g>
    <g
       id="pressed-center"
       transform="translate(-308.59192,469.76869)">
      <path
         inkscape:connector-curvature="0"
         id="path875"
         d="m 0,39.999998 v -1.6 h 1.6 1.5999999 v 1.6 1.6 H 1.6 0 Z M 41.599999,1.5999999 V 0 h 1.6 1.6 v 1.5999999 1.5999999 h -1.6 -1.6 z"
         style="fill:#ffffff;stroke-width:0.31999999" />
      <path
         inkscape:connector-curvature="0"
         id="path873"
         d="m 3.1999999,39.999998 v -1.6 H 20.8 38.399999 V 20.799999 3.1999998 h 3.2 3.2 V 22.399999 41.599998 h -20.8 -20.7999991 z"
         style="fill:#fefefe;stroke-width:0.31999999" />
      <path
         inkscape:connector-curvature="0"
         id="path871"
         d="m 28.799999,30.399999 v -1.6 h 1.6 1.6 v 1.6 1.599999 h -1.6 -1.6 z"
         style="fill:#c6c6c6;stroke-width:0.31999999" />
      <path
         inkscape:connector-curvature="0"
         id="path869"
         d="m 22.399999,30.399999 v -1.6 h 1.6 1.6 v -1.6 -1.6 h 1.6 1.6 v -1.6 -1.6 h 1.6 1.6 v 3.2 3.2 h -1.6 -1.6 v 1.6 1.599999 h -3.2 -3.2 z"
         style="fill:#b7b7b7;stroke-width:0.31999999" />
      <path
         inkscape:connector-curvature="0"
         id="path867"
         d="m 12.8,33.599998 v -1.6 h 1.6 1.6 v -1.599999 -1.6 h 1.6 1.6 v -1.6 -1.6 h 1.6 1.599999 v -1.6 -1.6 h 1.6 1.6 v -1.6 -1.6 h 1.6 1.6 v -1.6 -1.6 h 1.6 1.6 v -1.6 -1.6 h 1.6 1.6 v 11.2 11.199999 h -11.2 H 12.8 Z m 19.199999,-6.399999 v -4.8 h -1.6 -1.6 v 1.6 1.6 h -1.6 -1.6 v 1.6 1.6 h -1.6 -1.6 v 1.6 1.599999 h 4.8 4.8 z"
         style="fill:#a8a8a8;stroke-width:0.31999999" />
      <path
         inkscape:connector-curvature="0"
         id="path865"
         d="M 0,19.199999 V 0 H 19.2 38.399999 V 1.5999999 3.1999998 H 20.8 3.1999999 V 20.799999 38.399998 H 1.6 0 Z m 6.3999999,14.399999 v -1.6 h 1.5999999 1.6 v -1.599999 -1.6 H 11.2 12.8 v -1.6 -1.6 h 1.6 1.6 v -1.6 -1.6 h 1.6 1.6 v -1.6 -1.6 h 1.6 1.599999 v -1.6 -1.6 h 1.6 1.6 v -1.6 -1.6 h 1.6 1.6 v -1.6 -1.5999995 h 1.6 1.6 V 7.9999996 6.3999997 h 1.6 1.6 v 3.1999998 3.1999995 h -1.6 -1.6 v 1.6 1.6 h -1.6 -1.6 v 1.6 1.6 h -1.6 -1.6 v 1.6 1.6 h -1.6 -1.6 v 1.6 1.6 H 20.8 19.2 v 1.6 1.6 H 17.6 16 v 1.6 1.599999 h -1.6 -1.6 v 1.6 1.6 H 9.5999998 6.3999999 Z"
         style="fill:#999999;stroke-width:0.31999999" />
      <path
         inkscape:connector-curvature="0"
         id="path863"
         d="m 6.3999999,28.799999 v -3.2 h 1.5999999 1.6 v -1.6 -1.6 H 11.2 12.8 v -1.6 -1.6 h 1.6 1.6 v -1.6 -1.6 h 1.6 1.6 v -1.6 -1.6 h 1.6 1.599999 v -1.6 -1.5999995 h 1.6 1.6 V 7.9999996 6.3999997 h 3.2 3.2 v 1.5999999 1.5999999 h -1.6 -1.6 v 1.5999995 1.6 h -1.6 -1.6 v 1.6 1.6 h -1.6 -1.6 v 1.6 1.6 H 20.8 19.2 v 1.6 1.6 H 17.6 16 v 1.6 1.6 h -1.6 -1.6 v 1.6 1.6 H 11.2 9.5999998 v 1.6 1.599999 h -1.6 -1.5999999 z M 38.399999,1.5999999 V 0 h 1.6 1.6 v 1.5999999 1.5999999 h -1.6 -1.6 z"
         style="fill:#888888;stroke-width:0.31999999" />
      <path
         inkscape:connector-curvature="0"
         id="path861"
         d="m 6.3999999,22.399999 v -3.2 h 1.5999999 1.6 v -1.6 -1.6 H 11.2 12.8 v -1.6 -1.6 h 1.6 1.6 v -1.6 -1.5999995 h 1.6 1.6 V 7.9999996 6.3999997 h 3.199999 3.2 v 1.5999999 1.5999999 h -1.6 -1.6 v 1.5999995 1.6 H 20.8 19.2 v 1.6 1.6 H 17.6 16 v 1.6 1.6 h -1.6 -1.6 v 1.6 1.6 H 11.2 9.5999998 v 1.6 1.6 h -1.6 -1.5999999 z"
         style="fill:#787878;stroke-width:0.31999999" />
      <path
         inkscape:connector-curvature="0"
         id="path859"
         d="m 6.3999999,15.999999 v -3.2 h 1.5999999 1.6 v -1.6 -1.5999995 H 11.2 12.8 V 7.9999996 6.3999997 H 16 19.2 V 7.9999996 9.5999995 H 17.6 16 v 1.5999995 1.6 h -1.6 -1.6 v 1.6 1.6 H 11.2 9.5999998 v 1.6 1.6 h -1.6 -1.5999999 z"
         style="fill:#676767;stroke-width:0.31999999" />
      <path
         inkscape:connector-curvature="0"
         id="path857"
         d="M 6.3999999,9.5999995 V 6.3999997 H 9.5999998 12.8 V 7.9999996 9.5999995 H 11.2 9.5999998 v 1.5999995 1.6 h -1.6 -1.5999999 z"
         style="fill:#555555;stroke-width:0.31999999" />
      <path
         inkscape:connector-curvature="0"
         id="path855"
         d="M 3.1999999,20.799999 V 3.1999998 H 20.8 38.399999 V 20.799999 38.399998 H 20.8 3.1999999 Z m 31.9999991,0 V 6.3999997 H 20.8 6.3999999 V 20.799999 35.199998 H 20.8 35.199999 Z"
         style="fill:#2c2c2c;stroke-width:0.31999999" />
    </g>
    <g
       id="hover-center"
       transform="translate(-352.19192,469.76869)">
      <path
         inkscape:connector-curvature="0"
         id="path849-5"
         d="m 0,39.999998 v -1.6 H 19.199999 38.399998 V 19.199999 0 h 1.6 1.6 V 20.799999 41.599998 H 20.799999 0 Z m 28.799999,-9.599999 v -1.6 h 1.6 1.599999 v 1.6 1.599999 h -1.599999 -1.6 z M 6.3999997,7.9999996 V 6.3999997 H 7.9999996 9.5999995 V 7.9999996 9.5999995 H 7.9999996 6.3999997 Z"
         style="fill:#fefefe;stroke-width:0.31999999" />
      <path
         inkscape:connector-curvature="0"
         id="path847-3"
         d="m 22.399999,30.399999 v -1.6 h 1.6 1.6 v -1.6 -1.6 h 1.6 1.6 v -1.6 -1.6 h 1.6 1.599999 v 3.2 3.2 h -1.599999 -1.6 v 1.6 1.599999 h -3.2 -3.2 z"
         style="fill:#eeeeee;stroke-width:0.31999999" />
      <path
         inkscape:connector-curvature="0"
         id="path845-5"
         d="m 15.999999,30.399999 v -1.6 h 1.6 1.6 v -1.6 -1.6 h 1.6 1.6 v -1.6 -1.6 h 1.6 1.6 v -1.6 -1.6 h 1.6 1.6 v -1.6 -1.6 h 1.6 1.599999 v 3.2 3.2 h -1.599999 -1.6 v 1.6 1.6 h -1.6 -1.6 v 1.6 1.6 h -1.6 -1.6 v 1.6 1.599999 h -3.2 -3.2 z"
         style="fill:#dddddd;stroke-width:0.31999999" />
      <path
         inkscape:connector-curvature="0"
         id="path843-6"
         d="M 6.3999997,22.399999 V 9.5999995 H 7.9999996 9.5999995 V 7.9999996 6.3999997 H 22.399999 35.199998 v 1.5999999 1.5999999 h -1.6 -1.6 v 3.1999995 3.2 h -1.599999 -1.6 v 1.6 1.6 h -1.6 -1.6 v 1.6 1.6 h -1.6 -1.6 v 1.6 1.6 h -1.6 -1.6 v 1.6 1.6 h -1.6 -1.6 v 1.6 1.599999 h -3.2 -3.1999995 v 1.6 1.6 H 7.9999996 6.3999997 Z m 6.3999993,4.8 v -1.6 h 1.6 1.6 v -1.6 -1.6 h 1.6 1.6 v -1.6 -1.6 h 1.6 1.6 v -1.6 -1.6 h 1.6 1.6 v -1.6 -1.6 h 1.6 1.6 v -1.6 -1.5999995 h -9.6 -9.5999995 v 9.5999995 9.6 h 1.5999995 1.6 z"
         style="fill:#cccccc;stroke-width:0.31999999" />
      <path
         inkscape:connector-curvature="0"
         id="path841-2"
         d="m 9.5999995,25.599999 v -3.2 h 1.5999995 1.6 v -1.6 -1.6 h 1.6 1.6 v -1.6 -1.6 h 1.6 1.6 v -1.6 -1.6 h 1.6 1.6 v -1.6 -1.5999995 h 3.2 3.2 v 1.5999995 1.6 h -1.6 -1.6 v 1.6 1.6 h -1.6 -1.6 v 1.6 1.6 h -1.6 -1.6 v 1.6 1.6 h -1.6 -1.6 v 1.6 1.6 h -1.6 -1.6 v 1.6 1.6 h -1.6 -1.5999995 z"
         style="fill:#bbbbbb;stroke-width:0.31999999" />
      <path
         inkscape:connector-curvature="0"
         id="path839-9"
         d="m 9.5999995,19.199999 v -3.2 h 1.5999995 1.6 v -1.6 -1.6 h 1.6 1.6 v -1.6 -1.5999995 h 3.2 3.2 v 1.5999995 1.6 h -1.6 -1.6 v 1.6 1.6 h -1.6 -1.6 v 1.6 1.6 h -1.6 -1.6 v 1.6 1.6 h -1.6 -1.5999995 z"
         style="fill:#aaaaaa;stroke-width:0.31999999" />
      <path
         inkscape:connector-curvature="0"
         id="path837-3-1"
         d="M 0,19.199999 V 0 H 19.199999 38.399998 V 1.5999999 3.1999998 H 20.799999 3.1999998 V 20.799999 38.399998 H 1.5999999 0 Z m 9.5999995,14.399999 v -1.6 H 20.799999 31.999998 V 20.799999 9.5999995 h 1.6 1.6 V 22.399999 35.199998 H 22.399999 9.5999995 Z m 0,-20.799999 V 9.5999995 h 3.1999995 3.2 v 1.5999995 1.6 h -1.6 -1.6 v 1.6 1.6 h -1.6 -1.5999995 z"
         style="fill:#898989;stroke-width:0.31999999" />
      <path
         inkscape:connector-curvature="0"
         id="path835-6-2"
         d="M 3.1999998,20.799999 V 3.1999998 H 20.799999 38.399998 V 20.799999 38.399998 H 20.799999 3.1999998 Z m 31.9999982,0 V 6.3999997 H 20.799999 6.3999997 V 20.799999 35.199998 H 20.799999 35.199998 Z"
         style="fill:#1b1b1b;stroke-width:0.31999999" />
    </g>
    <path
       inkscape:connector-curvature="0"
       id="inactive-center"
       d="m -261.76566,490.5303 v -20.8 h 20.8 20.8 v 20.8 20.8 h -20.8 -20.8 z"
       style="opacity:0;fill:#dddddd;fill-opacity:1;stroke-width:0.31999999" />
    <path
       inkscape:connector-curvature="0"
       id="deactivated-center"
       d="m -218.16566,490.5303 v -20.8 h 20.79999 20.80002 v 20.8 20.8 h -20.8 -20.80001 z"
       style="opacity:0;fill:#dddddd;fill-opacity:1;stroke-width:0.31999999"
       inkscape:transform-center-x="60.858586"
       inkscape:transform-center-y="-17.929293" />
  </g>
</svg>
