<?xml version="1.0" encoding="UTF-8" standalone="no"?>
<!-- Created with Inkscape (http://www.inkscape.org/) -->

<svg
   xmlns:osb="http://www.openswatchbook.org/uri/2009/osb"
   xmlns:dc="http://purl.org/dc/elements/1.1/"
   xmlns:cc="http://creativecommons.org/ns#"
   xmlns:rdf="http://www.w3.org/1999/02/22-rdf-syntax-ns#"
   xmlns:svg="http://www.w3.org/2000/svg"
   xmlns="http://www.w3.org/2000/svg"
   xmlns:sodipodi="http://sodipodi.sourceforge.net/DTD/sodipodi-0.dtd"
   xmlns:inkscape="http://www.inkscape.org/namespaces/inkscape"
   width="226"
   height="51.600014"
   viewBox="0 0 59.795831 13.652504"
   version="1.1"
   id="svg8"
   inkscape:version="0.92.4 (5da689c313, 2019-01-14)"
   sodipodi:docname="help.svg">
  <sodipodi:namedview
     id="base"
     pagecolor="#ffffff"
     bordercolor="#666666"
     borderopacity="1.0"
     inkscape:pageopacity="0.0"
     inkscape:pageshadow="2"
     inkscape:zoom="3.5691215"
     inkscape:cx="142.13247"
     inkscape:cy="-9.5889912"
     inkscape:document-units="px"
     inkscape:current-layer="layer1"
     showgrid="false"
     units="px"
     inkscape:pagecheckerboard="true"
     inkscape:showpageshadow="false"
     inkscape:window-width="1366"
     inkscape:window-height="722"
     inkscape:window-x="0"
     inkscape:window-y="312"
     inkscape:window-maximized="1"
     inkscape:snap-global="true"
     fit-margin-top="5"
     fit-margin-left="5"
     fit-margin-right="5"
     fit-margin-bottom="5"
     inkscape:snap-midpoints="true"
     showguides="true"
     inkscape:guide-bbox="true" />
  <defs
     id="defs2">
    <style
       id="current-color-scheme"
       type="text/css">
          .ColorScheme-Text {
          color:#31363b;
          }
          .ColorScheme-Background{
          
          }
          .ColorScheme-Highlight{
          
          }
          .ColorScheme-ViewText {
          color:#31363b;
          }
          .ColorScheme-ViewBackground{
          color:#fcfcfc;
          }
          .ColorScheme-ViewHover {
          
          }
          .ColorScheme-ViewFocus{
          
          }
          .ColorScheme-ButtonText {
          color:#31363b;
          }
          .ColorScheme-ButtonBackground{
          
          }
          .ColorScheme-ButtonHover {
          
          }
          .ColorScheme-ButtonFocus{
          
          }
      </style>
    <linearGradient
       id="cross"
       osb:paint="solid">
      <stop
         style="stop-color:#313131;stop-opacity:1;"
         offset="0"
         id="stop2861" />
    </linearGradient>
    <linearGradient
       id="five"
       osb:paint="solid">
      <stop
         style="stop-color:#edece8;stop-opacity:1;"
         offset="0"
         id="stop2816" />
    </linearGradient>
    <linearGradient
       id="four"
       osb:paint="solid">
      <stop
         style="stop-color:#ffffff;stop-opacity:1;"
         offset="0"
         id="stop2091" />
    </linearGradient>
    <linearGradient
       id="three"
       osb:paint="solid">
      <stop
         style="stop-color:#363e41;stop-opacity:1;"
         offset="0"
         id="stop2001" />
    </linearGradient>
    <linearGradient
       id="two"
       osb:paint="solid">
      <stop
         style="stop-color:#7c7a75;stop-opacity:1;"
         offset="0"
         id="stop1995" />
    </linearGradient>
    <linearGradient
       id="one"
       osb:paint="solid">
      <stop
         style="stop-color:#b9b3a6;stop-opacity:1;"
         offset="0"
         id="stop1986" />
    </linearGradient>
    <linearGradient
       id="base-3"
       osb:paint="solid">
      <stop
         style="stop-color:#d4d0c8;stop-opacity:1;"
         offset="0"
         id="stop1558" />
    </linearGradient>
  </defs>
  <metadata
     id="metadata5">
    <rdf:RDF>
      <cc:Work
         rdf:about="">
        <dc:format>image/svg+xml</dc:format>
        <dc:type
           rdf:resource="http://purl.org/dc/dcmitype/StillImage" />
        <dc:title />
      </cc:Work>
    </rdf:RDF>
  </metadata>
  <g
     transform="translate(9.9887988,-272.46946)"
     id="layer1"
     inkscape:groupmode="layer"
     inkscape:label="Layer 1">
    <g
       id="active-center"
       transform="matrix(0.26458333,0,0,0.26458333,-8.6658822,273.79238)">
      <path
         inkscape:connector-curvature="0"
         id="path861"
         d="m 0,39.999998 v -1.6 h 1.5999999 1.5999999 v 1.6 1.6 H 1.5999999 0 Z M 38.399998,1.5999999 V 0 h 1.6 1.6 v 1.5999999 1.5999999 h -1.6 -1.6 z"
         style="fill:#ffffff;stroke-width:0.31999999" />
      <path
         inkscape:connector-curvature="0"
         id="path859"
         d="m 3.1999998,39.999998 v -1.6 H 20.799999 38.399998 V 20.799999 3.1999998 h 1.6 1.6 V 22.399999 41.599998 H 22.399999 3.1999998 Z M 28.799999,30.399999 v -1.6 h 1.6 1.599999 v 1.6 1.599999 h -1.599999 -1.6 z M 6.3999997,7.9999996 V 6.3999997 H 7.9999996 9.5999995 V 7.9999996 9.5999995 H 7.9999996 6.3999997 Z"
         style="fill:#fefefe;stroke-width:0.31999999" />
      <path
         inkscape:connector-curvature="0"
         id="path857"
         d="m 22.399999,30.399999 v -1.6 h 1.6 1.6 v -1.6 -1.6 h 1.6 1.6 v -1.6 -1.6 h 1.6 1.599999 v 3.2 3.2 h -1.599999 -1.6 v 1.6 1.599999 h -3.2 -3.2 z"
         style="fill:#eeeeee;stroke-width:0.31999999" />
      <path
         inkscape:connector-curvature="0"
         id="path855"
         d="m 15.999999,30.399999 v -1.6 h 1.6 1.6 v -1.6 -1.6 h 1.6 1.6 v -1.6 -1.6 h 1.6 1.6 v -1.6 -1.6 h 1.6 1.6 v -1.6 -1.6 h 1.6 1.599999 v 3.2 3.2 h -1.599999 -1.6 v 1.6 1.6 h -1.6 -1.6 v 1.6 1.6 h -3.2 -3.2 v 1.6 1.599999 h -1.6 -1.6 z"
         style="fill:#dddddd;stroke-width:0.31999999" />
      <path
         inkscape:connector-curvature="0"
         id="path853"
         d="M 6.3999997,22.399999 V 9.5999995 H 7.9999996 9.5999995 V 7.9999996 6.3999997 h 3.1999995 3.2 v 1.5999999 1.5999999 h -3.2 -3.1999995 v 9.5999995 9.6 h 1.5999995 1.6 v -1.6 -1.6 h 1.6 1.6 v -1.6 -1.6 h 1.6 1.6 v -1.6 -1.6 h 1.6 1.6 v -1.6 -1.6 h 1.6 1.6 v 1.6 1.6 h -1.6 -1.6 v 1.6 1.6 h -1.6 -1.6 v 3.2 3.2 h -1.6 -1.6 v 1.6 1.599999 h -3.2 -3.1999995 v 1.6 1.6 H 7.9999996 6.3999997 Z m 22.3999993,-9.6 V 9.5999995 h -1.6 -1.6 V 7.9999996 6.3999997 h 4.8 4.799999 v 1.5999999 1.5999999 h -1.6 -1.6 v 3.1999995 3.2 h -1.599999 -1.6 z m -9.6,-4.7999994 V 6.3999997 h 1.6 1.6 v 1.5999999 1.5999999 h -1.6 -1.6 z"
         style="fill:#cccccc;stroke-width:0.31999999" />
      <path
         inkscape:connector-curvature="0"
         id="path851"
         d="M 22.399999,7.9999996 V 6.3999997 h 1.6 1.6 v 1.5999999 1.5999999 h -1.6 -1.6 z"
         style="fill:#cbcbcb;stroke-width:0.31999999" />
      <path
         inkscape:connector-curvature="0"
         id="path849"
         d="M 15.999999,7.9999996 V 6.3999997 h 1.6 1.6 v 1.5999999 1.5999999 h -1.6 -1.6 z"
         style="fill:#c7c7c7;stroke-width:0.31999999" />
      <path
         inkscape:connector-curvature="0"
         id="path847"
         d="m 9.5999995,25.599999 v -3.2 h 1.5999995 1.6 v -1.6 -1.6 h 1.6 1.6 v -1.6 -1.6 h 1.6 1.6 v -1.6 -1.6 h 3.2 3.2 v -1.6 -1.5999995 h 1.6 1.6 v 1.5999995 1.6 h -1.6 -1.6 v 1.6 1.6 h -1.6 -1.6 v 1.6 1.6 h -1.6 -1.6 v 1.6 1.6 h -1.6 -1.6 v 1.6 1.6 h -1.6 -1.6 v 1.6 1.6 h -1.6 -1.5999995 z"
         style="fill:#bbbbbb;stroke-width:0.31999999" />
      <path
         inkscape:connector-curvature="0"
         id="path845"
         d="m 9.5999995,19.199999 v -3.2 h 3.1999995 3.2 v -1.6 -1.6 h 1.6 1.6 v 1.6 1.6 h -1.6 -1.6 v 1.6 1.6 h -1.6 -1.6 v 1.6 1.6 h -1.6 -1.5999995 z"
         style="fill:#aaaaaa;stroke-width:0.31999999" />
      <path
         inkscape:connector-curvature="0"
         id="path843"
         d="M 9.5999995,12.799999 V 9.5999995 h 3.1999995 3.2 v 1.5999995 1.6 h -1.6 -1.6 v 1.6 1.6 h -1.6 -1.5999995 z"
         style="fill:#999999;stroke-width:0.31999999" />
      <path
         inkscape:connector-curvature="0"
         id="path841"
         d="M 0,19.199999 V 0 H 19.199999 38.399998 V 1.5999999 3.1999998 H 20.799999 3.1999998 V 20.799999 38.399998 H 1.5999999 0 Z m 9.5999995,14.399999 v -1.6 H 20.799999 31.999998 V 20.799999 9.5999995 h 1.6 1.6 V 22.399999 35.199998 H 22.399999 9.5999995 Z"
         style="fill:#888888;stroke-width:0.31999999" />
      <path
         inkscape:connector-curvature="0"
         id="path839"
         d="M 3.1999998,20.799999 V 3.1999998 H 20.799999 38.399998 V 20.799999 38.399998 H 20.799999 3.1999998 Z m 31.9999982,0 V 6.3999997 H 20.799999 6.3999997 V 20.799999 35.199998 H 20.799999 35.199998 Z"
         style="fill:#1b1b1b;stroke-width:0.31999999" />
      <path
         inkscape:connector-curvature="0"
         id="path837"
         d="m 19.199999,30.399999 v -1.6 h 1.6 1.6 v 1.6 1.599999 h -1.6 -1.6 z m 0,-6.4 v -1.6 h 1.6 1.6 v -1.6 -1.6 h 1.6 1.6 v -3.2 -3.2 h -4.8 -4.8 v 1.6 1.6 h -1.6 -1.6 v -1.6 -1.6 h 1.6 1.6 v -1.6 -1.5999995 h 4.8 4.8 v 1.5999995 1.6 h 1.6 1.6 v 3.2 3.2 h -1.6 -1.6 v 1.6 1.6 h -1.6 -1.6 v 1.6 1.6 h -1.6 -1.6 z"
         style="fill:#000000;stroke-width:0.31999999" />
    </g>
    <g
       id="pressed-center"
       transform="matrix(0.26458333,0,0,0.26458333,14.405783,273.79238)">
      <path
         inkscape:connector-curvature="0"
         id="path843-3"
         d="m 0,39.999998 v -1.6 h 1.5999999 1.5999999 v 1.6 1.6 H 1.5999999 0 Z M 38.399998,1.5999999 V 0 h 1.6 1.6 v 1.5999999 1.5999999 h -1.6 -1.6 z"
         style="fill:#ffffff;stroke-width:0.31999999" />
      <path
         inkscape:connector-curvature="0"
         id="path841-6"
         d="m 3.1999998,39.999998 v -1.6 H 20.799999 38.399998 V 20.799999 3.1999998 h 1.6 1.6 V 22.399999 41.599998 H 22.399999 3.1999998 Z"
         style="fill:#fefefe;stroke-width:0.31999999" />
      <path
         inkscape:connector-curvature="0"
         id="path839-7"
         d="m 28.799999,30.399999 v -1.6 h 1.6 1.599999 v 1.6 1.599999 h -1.599999 -1.6 z"
         style="fill:#c6c6c6;stroke-width:0.31999999" />
      <path
         inkscape:connector-curvature="0"
         id="path837-5"
         d="m 22.399999,30.399999 v -1.6 h 1.6 1.6 v -1.6 -1.6 h 1.6 1.6 v -1.6 -1.6 h 1.6 1.599999 v 3.2 3.2 h -1.599999 -1.6 v 1.6 1.599999 h -3.2 -3.2 z"
         style="fill:#b7b7b7;stroke-width:0.31999999" />
      <path
         inkscape:connector-curvature="0"
         id="path835"
         d="m 12.799999,33.599998 v -1.6 h 1.6 1.6 v -1.599999 -1.6 h 1.6 1.6 v -1.6 -1.6 h 1.6 1.6 v -1.6 -1.6 h 1.6 1.6 v -1.6 -1.6 h 1.6 1.6 v -1.6 -1.6 h 1.6 1.599999 v -1.6 -1.6 h 1.6 1.6 v 11.2 11.199999 h -11.199999 -11.2 z m 19.199999,-6.399999 v -4.8 h -1.599999 -1.6 v 1.6 1.6 h -1.6 -1.6 v 1.6 1.6 h -3.2 -3.2 v 1.6 1.599999 h 6.4 6.399999 z"
         style="fill:#a8a8a8;stroke-width:0.31999999" />
      <path
         inkscape:connector-curvature="0"
         id="path833"
         d="M 0,19.199999 V 0 H 19.199999 38.399998 V 1.5999999 3.1999998 H 20.799999 3.1999998 V 20.799999 38.399998 H 1.5999999 0 Z m 6.3999997,14.399999 v -1.6 h 1.5999999 1.5999999 v -1.599999 -1.6 h 1.5999995 1.6 v -1.6 -1.6 h 1.6 1.6 v -1.6 -1.6 h 1.6 1.6 v -1.6 -1.6 h 1.6 1.6 v -1.6 -1.6 h 1.6 1.6 v 1.6 1.6 h -1.6 -1.6 v 1.6 1.6 h -1.6 -1.6 v 3.2 3.2 h -1.6 -1.6 v 1.6 1.599999 h -1.6 -1.6 v 1.6 1.6 H 9.5999995 6.3999997 Z M 28.799999,12.799999 V 9.5999995 h 1.6 1.599999 V 7.9999996 6.3999997 h 1.6 1.6 v 3.1999998 3.1999995 h -1.6 -1.6 v 1.6 1.6 h -1.599999 -1.6 z"
         style="fill:#999999;stroke-width:0.31999999" />
      <path
         inkscape:connector-curvature="0"
         id="path831"
         d="m 6.3999997,28.799999 v -3.2 h 1.5999999 1.5999999 v -1.6 -1.6 h 1.5999995 1.6 v -1.6 -1.6 h 1.6 1.6 v -1.6 -1.6 h 1.6 1.6 v -1.6 -1.6 h 3.2 3.2 V 9.5999995 6.3999997 h 3.2 3.199999 v 1.5999999 1.5999999 h -1.599999 -1.6 v 1.5999995 1.6 h -1.6 -1.6 v 1.6 1.6 h -1.6 -1.6 v 1.6 1.6 h -1.6 -1.6 v 1.6 1.6 h -1.6 -1.6 v 1.6 1.6 h -1.6 -1.6 v 1.6 1.6 h -1.6 -1.5999995 v 1.6 1.599999 H 7.9999996 6.3999997 Z"
         style="fill:#898989;stroke-width:0.31999999" />
      <path
         inkscape:connector-curvature="0"
         id="path829"
         d="m 6.3999997,22.399999 v -3.2 h 1.5999999 1.5999999 v -1.6 -1.6 h 3.1999995 3.2 v -1.6 -1.6 h 1.6 1.6 v 1.6 1.6 h -1.6 -1.6 v 1.6 1.6 h -1.6 -1.6 v 1.6 1.6 h -1.6 -1.5999995 v 1.6 1.6 H 7.9999996 6.3999997 Z M 19.199999,7.9999996 V 6.3999997 h 3.2 3.2 v 1.5999999 1.5999999 h -3.2 -3.2 z"
         style="fill:#787878;stroke-width:0.31999999" />
      <path
         inkscape:connector-curvature="0"
         id="path827"
         d="m 6.3999997,15.999999 v -3.2 h 1.5999999 1.5999999 v -1.6 -1.5999995 h 1.5999995 1.6 V 7.9999996 6.3999997 h 1.6 1.6 v 3.1999998 3.1999995 h -1.6 -1.6 v 1.6 1.6 h -1.6 -1.5999995 v 1.6 1.6 H 7.9999996 6.3999997 Z"
         style="fill:#676767;stroke-width:0.31999999" />
      <path
         inkscape:connector-curvature="0"
         id="path825"
         d="M 15.999999,7.9999996 V 6.3999997 h 1.6 1.6 v 1.5999999 1.5999999 h -1.6 -1.6 z"
         style="fill:#656565;stroke-width:0.31999999" />
      <path
         inkscape:connector-curvature="0"
         id="path823"
         d="M 6.3999997,9.5999995 V 6.3999997 h 3.1999998 3.1999995 v 1.5999999 1.5999999 h -1.6 -1.5999995 v 1.5999995 1.6 H 7.9999996 6.3999997 Z"
         style="fill:#555555;stroke-width:0.31999999" />
      <path
         inkscape:connector-curvature="0"
         id="path821"
         d="M 3.1999998,20.799999 V 3.1999998 H 20.799999 38.399998 V 20.799999 38.399998 H 20.799999 3.1999998 Z m 31.9999982,0 V 6.3999997 H 20.799999 6.3999997 V 20.799999 35.199998 H 20.799999 35.199998 Z"
         style="fill:#2c2c2c;stroke-width:0.31999999" />
      <path
         inkscape:connector-curvature="0"
         id="path819"
         d="m 19.199999,30.399999 v -1.6 h 1.6 1.6 v 1.6 1.599999 h -1.6 -1.6 z m 0,-6.4 v -1.6 h 1.6 1.6 v -1.6 -1.6 h 1.6 1.6 v -3.2 -3.2 h -4.8 -4.8 v 1.6 1.6 h -1.6 -1.6 v -1.6 -1.6 h 1.6 1.6 v -1.6 -1.5999995 h 4.8 4.8 v 1.5999995 1.6 h 1.6 1.6 v 3.2 3.2 h -1.6 -1.6 v 1.6 1.6 h -1.6 -1.6 v 1.6 1.6 h -1.6 -1.6 z"
         style="fill:#000000;stroke-width:0.31999999" />
    </g>
    <g
       id="hover-center"
       transform="matrix(0.26458333,0,0,0.26458333,2.8699505,273.79238)">
      <path
         inkscape:connector-curvature="0"
         id="path861-5"
         d="m 0,39.999998 v -1.6 h 1.5999999 1.5999999 v 1.6 1.6 H 1.5999999 0 Z M 38.399998,1.5999999 V 0 h 1.6 1.6 v 1.5999999 1.5999999 h -1.6 -1.6 z"
         style="fill:#ffffff;stroke-width:0.31999999" />
      <path
         inkscape:connector-curvature="0"
         id="path859-6"
         d="m 3.1999998,39.999998 v -1.6 H 20.799999 38.399998 V 20.799999 3.1999998 h 1.6 1.6 V 22.399999 41.599998 H 22.399999 3.1999998 Z M 28.799999,30.399999 v -1.6 h 1.6 1.599999 v 1.6 1.599999 h -1.599999 -1.6 z M 6.3999997,7.9999996 V 6.3999997 H 7.9999996 9.5999995 V 7.9999996 9.5999995 H 7.9999996 6.3999997 Z"
         style="fill:#fefefe;stroke-width:0.31999999" />
      <path
         inkscape:connector-curvature="0"
         id="path857-2"
         d="m 22.399999,30.399999 v -1.6 h 1.6 1.6 v -1.6 -1.6 h 1.6 1.6 v -1.6 -1.6 h 1.6 1.599999 v 3.2 3.2 h -1.599999 -1.6 v 1.6 1.599999 h -3.2 -3.2 z"
         style="fill:#eeeeee;stroke-width:0.31999999" />
      <path
         inkscape:connector-curvature="0"
         id="path855-9"
         d="m 15.999999,30.399999 v -1.6 h 1.6 1.6 v -1.6 -1.6 h 1.6 1.6 v -1.6 -1.6 h 1.6 1.6 v -1.6 -1.6 h 1.6 1.6 v -1.6 -1.6 h 1.6 1.599999 v 3.2 3.2 h -1.599999 -1.6 v 1.6 1.6 h -1.6 -1.6 v 1.6 1.6 h -3.2 -3.2 v 1.6 1.599999 h -1.6 -1.6 z"
         style="fill:#dddddd;stroke-width:0.31999999" />
      <path
         inkscape:connector-curvature="0"
         id="path853-1"
         d="M 6.3999997,22.399999 V 9.5999995 H 7.9999996 9.5999995 V 7.9999996 6.3999997 h 3.1999995 3.2 v 1.5999999 1.5999999 h -3.2 -3.1999995 v 9.5999995 9.6 h 1.5999995 1.6 v -1.6 -1.6 h 1.6 1.6 v -1.6 -1.6 h 1.6 1.6 v -1.6 -1.6 h 1.6 1.6 v -1.6 -1.6 h 1.6 1.6 v 1.6 1.6 h -1.6 -1.6 v 1.6 1.6 h -1.6 -1.6 v 3.2 3.2 h -1.6 -1.6 v 1.6 1.599999 h -3.2 -3.1999995 v 1.6 1.6 H 7.9999996 6.3999997 Z m 22.3999993,-9.6 V 9.5999995 h -1.6 -1.6 V 7.9999996 6.3999997 h 4.8 4.799999 v 1.5999999 1.5999999 h -1.6 -1.6 v 3.1999995 3.2 h -1.599999 -1.6 z m -9.6,-4.7999994 V 6.3999997 h 1.6 1.6 v 1.5999999 1.5999999 h -1.6 -1.6 z"
         style="fill:#cccccc;stroke-width:0.31999999" />
      <path
         inkscape:connector-curvature="0"
         id="path851-2"
         d="M 22.399999,7.9999996 V 6.3999997 h 1.6 1.6 v 1.5999999 1.5999999 h -1.6 -1.6 z"
         style="fill:#cbcbcb;stroke-width:0.31999999" />
      <path
         inkscape:connector-curvature="0"
         id="path849-7"
         d="M 15.999999,7.9999996 V 6.3999997 h 1.6 1.6 v 1.5999999 1.5999999 h -1.6 -1.6 z"
         style="fill:#c7c7c7;stroke-width:0.31999999" />
      <path
         inkscape:connector-curvature="0"
         id="path847-0"
         d="m 9.5999995,25.599999 v -3.2 h 1.5999995 1.6 v -1.6 -1.6 h 1.6 1.6 v -1.6 -1.6 h 1.6 1.6 v -1.6 -1.6 h 3.2 3.2 v -1.6 -1.5999995 h 1.6 1.6 v 1.5999995 1.6 h -1.6 -1.6 v 1.6 1.6 h -1.6 -1.6 v 1.6 1.6 h -1.6 -1.6 v 1.6 1.6 h -1.6 -1.6 v 1.6 1.6 h -1.6 -1.6 v 1.6 1.6 h -1.6 -1.5999995 z"
         style="fill:#bbbbbb;stroke-width:0.31999999" />
      <path
         inkscape:connector-curvature="0"
         id="path845-9"
         d="m 9.5999995,19.199999 v -3.2 h 3.1999995 3.2 v -1.6 -1.6 h 1.6 1.6 v 1.6 1.6 h -1.6 -1.6 v 1.6 1.6 h -1.6 -1.6 v 1.6 1.6 h -1.6 -1.5999995 z"
         style="fill:#aaaaaa;stroke-width:0.31999999" />
      <path
         inkscape:connector-curvature="0"
         id="path843-36"
         d="M 9.5999995,12.799999 V 9.5999995 h 3.1999995 3.2 v 1.5999995 1.6 h -1.6 -1.6 v 1.6 1.6 h -1.6 -1.5999995 z"
         style="fill:#999999;stroke-width:0.31999999" />
      <path
         inkscape:connector-curvature="0"
         id="path841-0"
         d="M 0,19.199999 V 0 H 19.199999 38.399998 V 1.5999999 3.1999998 H 20.799999 3.1999998 V 20.799999 38.399998 H 1.5999999 0 Z m 9.5999995,14.399999 v -1.6 H 20.799999 31.999998 V 20.799999 9.5999995 h 1.6 1.6 V 22.399999 35.199998 H 22.399999 9.5999995 Z"
         style="fill:#888888;stroke-width:0.31999999" />
      <path
         inkscape:connector-curvature="0"
         id="path839-6"
         d="M 3.1999998,20.799999 V 3.1999998 H 20.799999 38.399998 V 20.799999 38.399998 H 20.799999 3.1999998 Z m 31.9999982,0 V 6.3999997 H 20.799999 6.3999997 V 20.799999 35.199998 H 20.799999 35.199998 Z"
         style="fill:#1b1b1b;stroke-width:0.31999999" />
      <path
         inkscape:connector-curvature="0"
         id="path837-2"
         d="m 19.199999,30.399999 v -1.6 h 1.6 1.6 v 1.6 1.599999 h -1.6 -1.6 z m 0,-6.4 v -1.6 h 1.6 1.6 v -1.6 -1.6 h 1.6 1.6 v -3.2 -3.2 h -4.8 -4.8 v 1.6 1.6 h -1.6 -1.6 v -1.6 -1.6 h 1.6 1.6 v -1.6 -1.5999995 h 4.8 4.8 v 1.5999995 1.6 h 1.6 1.6 v 3.2 3.2 h -1.6 -1.6 v 1.6 1.6 h -1.6 -1.6 v 1.6 1.6 h -1.6 -1.6 z"
         style="fill:#000000;stroke-width:0.31999999" />
    </g>
    <path
       inkscape:connector-curvature="0"
       id="inactive-center"
       d="m 25.870833,279.17108 v -5.50333 h 5.503333 5.503334 v 5.50333 5.50334 h -5.503334 -5.503333 z"
       style="opacity:0;fill:#dddddd;fill-opacity:1;stroke-width:0.08466666" />
    <path
       inkscape:connector-curvature="0"
       id="deactivated-center"
       d="m 37.406666,279.17108 v -5.50333 h 5.503332 5.503336 v 5.50333 5.50334 h -5.503333 -5.503335 z"
       style="opacity:0;fill:#dddddd;fill-opacity:1;stroke-width:0.08466666"
       inkscape:transform-center-x="60.858586"
       inkscape:transform-center-y="-17.929293" />
  </g>
</svg>
