<?xml version="1.0" encoding="UTF-8" standalone="no"?>
<!-- Created with Inkscape (http://www.inkscape.org/) -->

<svg
   xmlns:dc="http://purl.org/dc/elements/1.1/"
   xmlns:cc="http://creativecommons.org/ns#"
   xmlns:rdf="http://www.w3.org/1999/02/22-rdf-syntax-ns#"
   xmlns:svg="http://www.w3.org/2000/svg"
   xmlns="http://www.w3.org/2000/svg"
   xmlns:sodipodi="http://sodipodi.sourceforge.net/DTD/sodipodi-0.dtd"
   xmlns:inkscape="http://www.inkscape.org/namespaces/inkscape"
   width="224.97914"
   height="51.666279"
   viewBox="0 0 224.97915 51.666279"
   version="1.1"
   id="svg8"
   inkscape:version="0.92.4 (5da689c313, 2019-01-14)"
   sodipodi:docname="minimize.svg">
  <sodipodi:namedview
     id="base"
     pagecolor="#ffffff"
     bordercolor="#666666"
     borderopacity="1.0"
     inkscape:pageopacity="0.0"
     inkscape:pageshadow="2"
     inkscape:zoom="3.125412"
     inkscape:cx="52.291872"
     inkscape:cy="35.905348"
     inkscape:document-units="px"
     inkscape:current-layer="layer1"
     showgrid="false"
     units="px"
     inkscape:pagecheckerboard="true"
     inkscape:showpageshadow="false"
     inkscape:window-width="1920"
     inkscape:window-height="1028"
     inkscape:window-x="1366"
     inkscape:window-y="16"
     inkscape:window-maximized="1"
     inkscape:snap-global="true"
     fit-margin-top="5"
     fit-margin-left="5"
     fit-margin-right="5"
     fit-margin-bottom="5"
     inkscape:snap-midpoints="false"
     inkscape:snap-intersection-paths="false"
     inkscape:snap-nodes="true" />
  <defs
     id="defs2">
    <style
       id="current-color-scheme"
       type="text/css">
          .ColorScheme-Text {
          }
          .ColorScheme-Background{
          }
          .ColorScheme-Highlight{
          }
          .ColorScheme-ViewText {
          }
          .ColorScheme-ViewBackground{
          }
          .ColorScheme-ViewHover {
          }
          .ColorScheme-ViewFocus{
          }
          .ColorScheme-ButtonText {
          }
          .ColorScheme-ButtonBackground{
          }
          .ColorScheme-ButtonHover {
          }
          .ColorScheme-ButtonFocus{
          }
      </style>
  </defs>
  <metadata
     id="metadata5">
    <rdf:RDF>
      <cc:Work
         rdf:about="">
        <dc:format>image/svg+xml</dc:format>
        <dc:type
           rdf:resource="http://purl.org/dc/dcmitype/StillImage" />
        <dc:title />
      </cc:Work>
    </rdf:RDF>
  </metadata>
  <g
     transform="translate(100.01015,-318.91999)"
     id="layer1"
     inkscape:groupmode="layer"
     inkscape:label="Layer 1">
    <g
       id="hover-center"
       transform="translate(-51.410155,323.98627)">
      <path
         inkscape:connector-curvature="0"
         id="path837"
         d="m 0,39.999998 v -1.6 h 1.5999999 1.5999999 v 1.6 1.6 H 1.5999999 0 Z M 38.399998,1.5999999 V 0 h 1.6 1.6 v 1.5999999 1.5999999 h -1.6 -1.6 z"
         style="fill:#ffffff;stroke-width:0.31999999" />
      <path
         inkscape:connector-curvature="0"
         id="path835"
         d="m 3.1999998,39.999998 v -1.6 H 20.799999 38.399998 V 20.799999 3.1999998 h 1.6 1.6 V 22.399999 41.599998 H 22.399999 3.1999998 Z M 28.799999,30.399999 v -1.6 h 1.6 1.599999 v 1.6 1.599999 h -1.599999 -1.6 z M 6.3999997,7.9999996 V 6.3999997 H 7.9999996 9.5999995 V 7.9999996 9.5999995 H 7.9999996 6.3999997 Z"
         style="fill:#fefefe;stroke-width:0.31999999" />
      <path
         inkscape:connector-curvature="0"
         id="path833"
         d="m 25.599999,28.799999 v -3.2 h 1.6 1.6 v -1.6 -1.6 h 1.6 1.599999 v 3.2 3.2 h -1.599999 -1.6 v 1.6 1.599999 h -1.6 -1.6 z"
         style="fill:#eeeeee;stroke-width:0.31999999" />
      <path
         inkscape:connector-curvature="0"
         id="path831"
         d="m 15.999999,30.399999 v -1.6 h 1.6 1.6 v -1.6 -1.6 h 1.6 1.6 v 3.2 3.199999 h -3.2 -3.2 z m 9.6,-8 v -3.2 h 1.6 1.6 v -1.6 -1.6 h 1.6 1.599999 v 3.2 3.2 h -1.599999 -1.6 v 1.6 1.6 h -1.6 -1.6 z"
         style="fill:#dddddd;stroke-width:0.31999999" />
      <path
         inkscape:connector-curvature="0"
         id="path829"
         d="m 6.3999997,30.399999 v -4.8 h 1.5999999 1.5999999 v 1.6 1.6 h 1.5999995 1.6 v -1.6 -1.6 h 3.2 3.2 v 1.6 1.6 h -1.6 -1.6 v 1.6 1.599999 h -3.2 -3.1999995 v 1.6 1.6 H 7.9999996 6.3999997 Z m 0,-9.6 v -1.6 h 1.5999999 1.5999999 v 1.6 1.6 H 7.9999996 6.3999997 Z m 12.7999993,0 v -1.6 h 1.6 1.6 v 1.6 1.6 h -1.6 -1.6 z m 6.4,-4.8 v -3.2 h 1.6 1.6 v -1.6 -1.5999995 h -9.6 -9.5999995 v 3.1999995 3.2 H 7.9999996 6.3999997 v -3.2 -3.1999995 H 7.9999996 9.5999995 V 7.9999996 6.3999997 H 22.399999 35.199998 v 1.5999999 1.5999999 h -1.6 -1.6 v 3.1999995 3.2 h -1.599999 -1.6 v 1.6 1.6 h -1.6 -1.6 z"
         style="fill:#cccccc;stroke-width:0.31999999" />
      <path
         inkscape:connector-curvature="0"
         id="path827"
         d="m 9.5999995,27.199999 v -1.6 h 1.5999995 1.6 v 1.6 1.6 h -1.6 -1.5999995 z m 3.1999995,-6.4 v -1.6 h 3.2 3.2 v 1.6 1.6 h -3.2 -3.2 z m 6.4,-6.4 v -1.6 h 1.6 1.6 v -1.6 -1.5999995 h 3.2 3.2 v 1.5999995 1.6 h -1.6 -1.6 v 1.6 1.6 h -3.2 -3.2 z"
         style="fill:#bbbbbb;stroke-width:0.31999999" />
      <path
         inkscape:connector-curvature="0"
         id="path825"
         d="m 9.5999995,20.799999 v -1.6 h 1.5999995 1.6 v 1.6 1.6 h -1.6 -1.5999995 z m 3.1999995,-6.4 v -1.6 h 1.6 1.6 v -1.6 -1.5999995 h 3.2 3.2 v 1.5999995 1.6 h -1.6 -1.6 v 1.6 1.6 h -3.2 -3.2 z"
         style="fill:#aaaaaa;stroke-width:0.31999999" />
      <path
         inkscape:connector-curvature="0"
         id="path823"
         d="M 9.5999995,12.799999 V 9.5999995 h 3.1999995 3.2 v 1.5999995 1.6 h -1.6 -1.6 v 1.6 1.6 h -1.6 -1.5999995 z"
         style="fill:#999999;stroke-width:0.31999999" />
      <path
         inkscape:connector-curvature="0"
         id="path821"
         d="M 0,19.199999 V 0 H 19.199999 38.399998 V 1.5999999 3.1999998 H 20.799999 3.1999998 V 20.799999 38.399998 H 1.5999999 0 Z m 9.5999995,14.399999 v -1.6 h 6.3999995 6.4 v 1.6 1.6 h -6.4 -6.3999995 z m 15.9999995,0 v -1.6 h 3.2 3.199999 V 20.799999 9.5999995 h 1.6 1.6 V 22.399999 35.199998 h -4.799999 -4.8 z"
         style="fill:#888888;stroke-width:0.31999999" />
      <path
         inkscape:connector-curvature="0"
         id="path819"
         d="M 3.1999998,20.799999 V 3.1999998 H 20.799999 38.399998 V 20.799999 38.399998 H 20.799999 3.1999998 Z m 19.1999992,9.6 v -4.8 h -8 -7.9999993 v 4.8 4.799999 h 7.9999993 8 z m 12.799999,-9.6 V 6.3999997 H 20.799999 6.3999997 v 4.7999993 4.8 h 9.5999993 9.6 v 9.6 9.599999 h 4.8 4.799999 z m -12.799999,0 v -1.6 h -8 -7.9999993 v 1.6 1.6 h 7.9999993 8 z"
         style="fill:#1b1b1b;stroke-width:0.31999999" />
    </g>
    <g
       id="pressed-center"
       transform="translate(-8.8309992,323.91999)">
      <path
         inkscape:connector-curvature="0"
         id="path841"
         d="m 0,39.999998 v -1.6 h 1.5999999 1.5999999 v 1.6 1.6 H 1.5999999 0 Z M 38.399998,1.5999999 V 0 h 1.6 1.6 v 1.5999999 1.5999999 h -1.6 -1.6 z"
         style="fill:#ffffff;stroke-width:0.31999999" />
      <path
         inkscape:connector-curvature="0"
         id="path839"
         d="m 3.1999998,39.999998 v -1.6 H 20.799999 38.399998 V 20.799999 3.1999998 h 1.6 1.6 V 22.399999 41.599998 H 22.399999 3.1999998 Z"
         style="fill:#fefefe;stroke-width:0.31999999" />
      <path
         inkscape:connector-curvature="0"
         id="path837-6"
         d="m 28.799999,30.399999 v -1.6 h 1.6 1.599999 v 1.6 1.599999 h -1.599999 -1.6 z"
         style="fill:#c6c6c6;stroke-width:0.31999999" />
      <path
         inkscape:connector-curvature="0"
         id="path835-7"
         d="m 25.599999,28.799999 v -3.2 h 1.6 1.6 v -1.6 -1.6 h 1.6 1.599999 v 3.2 3.2 h -1.599999 -1.6 v 1.6 1.599999 h -1.6 -1.6 z"
         style="fill:#b7b7b7;stroke-width:0.31999999" />
      <path
         inkscape:connector-curvature="0"
         id="path833-5"
         d="m 12.799999,33.599998 v -1.6 h 1.6 1.6 v -1.599999 -1.6 h 1.6 1.6 v -1.6 -1.6 h 1.6 1.6 v 4.8 4.799999 h -4.8 -4.8 z m 12.8,0 v -1.6 h 3.2 3.199999 v -4.799999 -4.8 h -1.599999 -1.6 v 1.6 1.6 h -1.6 -1.6 v -3.2 -3.2 h 1.6 1.6 v -1.6 -1.6 h 1.6 1.599999 v -1.6 -1.6 h 1.6 1.6 v 11.2 11.199999 h -4.799999 -4.8 z"
         style="fill:#a8a8a8;stroke-width:0.31999999" />
      <path
         inkscape:connector-curvature="0"
         id="path831-3"
         d="m 6.3999997,33.599998 v -1.6 h 1.5999999 1.5999999 v -1.599999 -1.6 h 1.5999995 1.6 v -1.6 -1.6 h 3.2 3.2 v 1.6 1.6 h -1.6 -1.6 v 1.6 1.599999 h -1.6 -1.6 v 1.6 1.6 H 9.5999995 6.3999997 Z M 19.199999,20.799999 v -1.6 h 1.6 1.6 v 1.6 1.6 h -1.6 -1.6 z m 6.4,-4.8 v -3.2 h 1.6 1.6 v -1.6 -1.5999995 h 1.6 1.599999 V 7.9999996 6.3999997 h 1.6 1.6 v 3.1999998 3.1999995 h -1.6 -1.6 v 1.6 1.6 h -1.599999 -1.6 v 1.6 1.6 h -1.6 -1.6 z"
         style="fill:#999999;stroke-width:0.31999999" />
      <path
         inkscape:connector-curvature="0"
         id="path829-5"
         d="m 6.3999997,28.799999 v -3.2 h 3.1999998 3.1999995 v 1.6 1.6 h -1.6 -1.5999995 v 1.6 1.599999 H 7.9999996 6.3999997 Z m 6.3999993,-8 v -1.6 h 3.2 3.2 v 1.6 1.6 h -3.2 -3.2 z m 6.4,-6.4 v -1.6 h 1.6 1.6 v -1.6 -1.5999995 h 1.6 1.6 V 7.9999996 6.3999997 h 3.2 3.199999 v 1.5999999 1.5999999 h -1.599999 -1.6 v 1.5999995 1.6 h -1.6 -1.6 v 1.6 1.6 h -3.2 -3.2 z"
         style="fill:#898989;stroke-width:0.31999999" />
      <path
         inkscape:connector-curvature="0"
         id="path827-6"
         d="M 0,19.199999 V 0 H 19.199999 38.399998 V 1.5999999 3.1999998 H 20.799999 3.1999998 V 20.799999 38.399998 H 1.5999999 0 Z"
         style="fill:#888888;stroke-width:0.31999999" />
      <path
         inkscape:connector-curvature="0"
         id="path825-2"
         d="m 6.3999997,20.799999 v -1.6 h 3.1999998 3.1999995 v 1.6 1.6 H 9.5999995 6.3999997 Z m 6.3999993,-6.4 v -1.6 h 1.6 1.6 v -1.6 -1.5999995 h 1.6 1.6 V 7.9999996 6.3999997 h 3.2 3.2 v 1.5999999 1.5999999 h -1.6 -1.6 v 1.5999995 1.6 h -1.6 -1.6 v 1.6 1.6 h -3.2 -3.2 z"
         style="fill:#787878;stroke-width:0.31999999" />
      <path
         inkscape:connector-curvature="0"
         id="path823-9"
         d="m 6.3999997,14.399999 v -1.6 h 1.5999999 1.5999999 v -1.6 -1.5999995 h 1.5999995 1.6 V 7.9999996 6.3999997 h 3.2 3.2 v 1.5999999 1.5999999 h -1.6 -1.6 v 1.5999995 1.6 h -1.6 -1.6 v 1.6 1.6 H 9.5999995 6.3999997 Z"
         style="fill:#676767;stroke-width:0.31999999" />
      <path
         inkscape:connector-curvature="0"
         id="path821-1"
         d="M 6.3999997,9.5999995 V 6.3999997 h 3.1999998 3.1999995 v 1.5999999 1.5999999 h -1.6 -1.5999995 v 1.5999995 1.6 H 7.9999996 6.3999997 Z"
         style="fill:#555555;stroke-width:0.31999999" />
      <path
         inkscape:connector-curvature="0"
         id="path819-2"
         d="M 3.1999998,20.799999 V 3.1999998 H 20.799999 38.399998 V 20.799999 38.399998 H 20.799999 3.1999998 Z m 19.1999992,9.6 v -4.8 h -8 -7.9999993 v 4.8 4.799999 h 7.9999993 8 z m 12.799999,-9.6 V 6.3999997 H 20.799999 6.3999997 v 4.7999993 4.8 h 9.5999993 9.6 v 9.6 9.599999 h 4.8 4.799999 z m -12.799999,0 v -1.6 h -8 -7.9999993 v 1.6 1.6 h 7.9999993 8 z"
         style="fill:#1b1b1b;stroke-width:0.31999999" />
    </g>
    <g
       id="active-center"
       transform="translate(-95.010153,323.98627)">
      <path
         inkscape:connector-curvature="0"
         id="path837-67"
         d="m 0,39.999998 v -1.6 h 1.5999999 1.5999999 v 1.6 1.6 H 1.5999999 0 Z M 38.399998,1.5999999 V 0 h 1.6 1.6 v 1.5999999 1.5999999 h -1.6 -1.6 z"
         style="fill:#ffffff;stroke-width:0.31999999" />
      <path
         inkscape:connector-curvature="0"
         id="path835-5"
         d="m 3.1999998,39.999998 v -1.6 H 20.799999 38.399998 V 20.799999 3.1999998 h 1.6 1.6 V 22.399999 41.599998 H 22.399999 3.1999998 Z M 28.799999,30.399999 v -1.6 h 1.6 1.599999 v 1.6 1.599999 h -1.599999 -1.6 z M 6.3999997,7.9999996 V 6.3999997 H 7.9999996 9.5999995 V 7.9999996 9.5999995 H 7.9999996 6.3999997 Z"
         style="fill:#fefefe;stroke-width:0.31999999" />
      <path
         inkscape:connector-curvature="0"
         id="path833-3"
         d="m 25.599999,28.799999 v -3.2 h 1.6 1.6 v -1.6 -1.6 h 1.6 1.599999 v 3.2 3.2 h -1.599999 -1.6 v 1.6 1.599999 h -1.6 -1.6 z"
         style="fill:#eeeeee;stroke-width:0.31999999" />
      <path
         inkscape:connector-curvature="0"
         id="path831-5"
         d="m 15.999999,30.399999 v -1.6 h 1.6 1.6 v -1.6 -1.6 h 1.6 1.6 v 3.2 3.199999 h -3.2 -3.2 z m 9.6,-8 v -3.2 h 1.6 1.6 v -1.6 -1.6 h 1.6 1.599999 v 3.2 3.2 h -1.599999 -1.6 v 1.6 1.6 h -1.6 -1.6 z"
         style="fill:#dddddd;stroke-width:0.31999999" />
      <path
         inkscape:connector-curvature="0"
         id="path829-6"
         d="m 6.3999997,30.399999 v -4.8 h 1.5999999 1.5999999 v 1.6 1.6 h 1.5999995 1.6 v -1.6 -1.6 h 3.2 3.2 v 1.6 1.6 h -1.6 -1.6 v 1.6 1.599999 h -3.2 -3.1999995 v 1.6 1.6 H 7.9999996 6.3999997 Z m 0,-9.6 v -1.6 h 1.5999999 1.5999999 v 1.6 1.6 H 7.9999996 6.3999997 Z m 12.7999993,0 v -1.6 h 1.6 1.6 v 1.6 1.6 h -1.6 -1.6 z m 6.4,-4.8 v -3.2 h 1.6 1.6 v -1.6 -1.5999995 h -9.6 -9.5999995 v 3.1999995 3.2 H 7.9999996 6.3999997 v -3.2 -3.1999995 H 7.9999996 9.5999995 V 7.9999996 6.3999997 H 22.399999 35.199998 v 1.5999999 1.5999999 h -1.6 -1.6 v 3.1999995 3.2 h -1.599999 -1.6 v 1.6 1.6 h -1.6 -1.6 z"
         style="fill:#cccccc;stroke-width:0.31999999" />
      <path
         inkscape:connector-curvature="0"
         id="path827-2"
         d="m 9.5999995,27.199999 v -1.6 h 1.5999995 1.6 v 1.6 1.6 h -1.6 -1.5999995 z m 3.1999995,-6.4 v -1.6 h 3.2 3.2 v 1.6 1.6 h -3.2 -3.2 z m 6.4,-6.4 v -1.6 h 1.6 1.6 v -1.6 -1.5999995 h 3.2 3.2 v 1.5999995 1.6 h -1.6 -1.6 v 1.6 1.6 h -3.2 -3.2 z"
         style="fill:#bbbbbb;stroke-width:0.31999999" />
      <path
         inkscape:connector-curvature="0"
         id="path825-9"
         d="m 9.5999995,20.799999 v -1.6 h 1.5999995 1.6 v 1.6 1.6 h -1.6 -1.5999995 z m 3.1999995,-6.4 v -1.6 h 1.6 1.6 v -1.6 -1.5999995 h 3.2 3.2 v 1.5999995 1.6 h -1.6 -1.6 v 1.6 1.6 h -3.2 -3.2 z"
         style="fill:#aaaaaa;stroke-width:0.31999999" />
      <path
         inkscape:connector-curvature="0"
         id="path823-1"
         d="M 9.5999995,12.799999 V 9.5999995 h 3.1999995 3.2 v 1.5999995 1.6 h -1.6 -1.6 v 1.6 1.6 h -1.6 -1.5999995 z"
         style="fill:#999999;stroke-width:0.31999999" />
      <path
         inkscape:connector-curvature="0"
         id="path821-2"
         d="M 0,19.199999 V 0 H 19.199999 38.399998 V 1.5999999 3.1999998 H 20.799999 3.1999998 V 20.799999 38.399998 H 1.5999999 0 Z m 9.5999995,14.399999 v -1.6 h 6.3999995 6.4 v 1.6 1.6 h -6.4 -6.3999995 z m 15.9999995,0 v -1.6 h 3.2 3.199999 V 20.799999 9.5999995 h 1.6 1.6 V 22.399999 35.199998 h -4.799999 -4.8 z"
         style="fill:#888888;stroke-width:0.31999999" />
      <path
         inkscape:connector-curvature="0"
         id="path819-7"
         d="M 3.1999998,20.799999 V 3.1999998 H 20.799999 38.399998 V 20.799999 38.399998 H 20.799999 3.1999998 Z m 19.1999992,9.6 v -4.8 h -8 -7.9999993 v 4.8 4.799999 h 7.9999993 8 z m 12.799999,-9.6 V 6.3999997 H 20.799999 6.3999997 v 4.7999993 4.8 h 9.5999993 9.6 v 9.6 9.599999 h 4.8 4.799999 z m -12.799999,0 v -1.6 h -8 -7.9999993 v 1.6 1.6 h 7.9999993 8 z"
         style="fill:#1b1b1b;stroke-width:0.31999999" />
    </g>
    <path
       inkscape:connector-curvature="0"
       id="inactive-center"
       d="m 34.328629,344.51023 v -20.8 h 20.8 20.8 v 20.8 20.8 h -20.8 -20.8 z"
       style="opacity:0;fill:#dddddd;fill-opacity:1;stroke-width:0.31999999" />
    <path
       inkscape:connector-curvature="0"
       id="deactivated-center"
       d="m 77.928629,344.51023 v -20.8 h 20.799991 20.80001 v 20.8 20.8 h -20.8 -20.800001 z"
       style="opacity:0;fill:#dddddd;fill-opacity:1;stroke-width:0.31999999"
       inkscape:transform-center-x="60.858586"
       inkscape:transform-center-y="-17.929293" />
  </g>
</svg>
