<?xml version="1.0" encoding="UTF-8" standalone="no"?>
<!-- Created with Inkscape (http://www.inkscape.org/) -->

<svg
   xmlns:dc="http://purl.org/dc/elements/1.1/"
   xmlns:cc="http://creativecommons.org/ns#"
   xmlns:rdf="http://www.w3.org/1999/02/22-rdf-syntax-ns#"
   xmlns:svg="http://www.w3.org/2000/svg"
   xmlns="http://www.w3.org/2000/svg"
   xmlns:sodipodi="http://sodipodi.sourceforge.net/DTD/sodipodi-0.dtd"
   xmlns:inkscape="http://www.inkscape.org/namespaces/inkscape"
   width="225.99998"
   height="51.599998"
   viewBox="0 0 225.99999 51.599998"
   version="1.1"
   id="svg8"
   inkscape:version="0.92.4 (5da689c313, 2019-01-14)"
   sodipodi:docname="restore.svg">
  <sodipodi:namedview
     id="base"
     pagecolor="#ffffff"
     bordercolor="#666666"
     borderopacity="1.0"
     inkscape:pageopacity="0.0"
     inkscape:pageshadow="2"
     inkscape:zoom="3.9986889"
     inkscape:cx="105.31713"
     inkscape:cy="6.9279477"
     inkscape:document-units="px"
     inkscape:current-layer="layer1"
     showgrid="false"
     units="px"
     inkscape:pagecheckerboard="true"
     inkscape:showpageshadow="false"
     inkscape:window-width="1920"
     inkscape:window-height="1028"
     inkscape:window-x="1366"
     inkscape:window-y="16"
     inkscape:window-maximized="1"
     inkscape:snap-global="true"
     fit-margin-top="5"
     fit-margin-left="5"
     fit-margin-right="5"
     fit-margin-bottom="5"
     inkscape:snap-midpoints="false"
     inkscape:snap-intersection-paths="false" />
  <defs
     id="defs2">
    <style
       id="current-color-scheme"
       type="text/css">
          .ColorScheme-Text {
          color:#31363b;
          }
          .ColorScheme-Background{
          
          }
          .ColorScheme-Highlight{
          
          }
          .ColorScheme-ViewText {
          color:#31363b;
          }
          .ColorScheme-ViewBackground{
          color:#fcfcfc;
          }
          .ColorScheme-ViewHover {
          
          }
          .ColorScheme-ViewFocus{
          
          }
          .ColorScheme-ButtonText {
          color:#31363b;
          }
          .ColorScheme-ButtonBackground{
          
          }
          .ColorScheme-ButtonHover {
          
          }
          .ColorScheme-ButtonFocus{
          
          }
      </style>
  </defs>
  <metadata
     id="metadata5">
    <rdf:RDF>
      <cc:Work
         rdf:about="">
        <dc:format>image/svg+xml</dc:format>
        <dc:type
           rdf:resource="http://purl.org/dc/dcmitype/StillImage" />
        <dc:title />
      </cc:Work>
    </rdf:RDF>
  </metadata>
  <g
     transform="translate(69.896648,-274.28073)"
     id="layer1"
     inkscape:groupmode="layer"
     inkscape:label="Layer 1">
    <g
       id="active-center"
       transform="translate(-64.896648,279.28073)">
      <path
         inkscape:connector-curvature="0"
         id="path839"
         d="m 0,39.999998 v -1.6 h 1.5999999 1.5999999 v 1.6 1.6 H 1.5999999 0 Z M 38.399998,1.5999999 V 0 h 1.6 1.6 v 1.5999999 1.5999999 h -1.6 -1.6 z"
         style="fill:#ffffff;stroke-width:0.31999999" />
      <path
         inkscape:connector-curvature="0"
         id="path837-6"
         d="m 3.1999998,39.999998 v -1.6 H 20.799999 38.399998 V 20.799999 3.1999998 h 1.6 1.6 V 22.399999 41.599998 H 22.399999 3.1999998 Z"
         style="fill:#fefefe;stroke-width:0.31999999" />
      <path
         inkscape:connector-curvature="0"
         id="path835-7"
         d="m 28.799999,30.399999 v -1.6 h 1.6 1.599999 v 1.6 1.599999 h -1.599999 -1.6 z"
         style="fill:#c6c6c6;stroke-width:0.31999999" />
      <path
         inkscape:connector-curvature="0"
         id="path833-5"
         d="m 22.399999,30.399999 v -1.6 h 1.6 1.6 v -1.6 -1.6 h 1.6 1.6 v -1.6 -1.6 h 1.6 1.599999 v 3.2 3.2 h -1.599999 -1.6 v 1.6 1.599999 h -3.2 -3.2 z"
         style="fill:#b7b7b7;stroke-width:0.31999999" />
      <path
         inkscape:connector-curvature="0"
         id="path831-3"
         d="m 12.799999,33.599998 v -1.6 h 1.6 1.6 v -1.599999 -1.6 h 1.6 1.6 v -1.6 -1.6 h 3.2 3.2 v -3.2 -3.2 h 1.6 1.6 v -1.6 -1.6 h 1.6 1.599999 v -1.6 -1.6 h 1.6 1.6 v 11.2 11.199999 h -11.199999 -11.2 z m 19.199999,-6.399999 v -4.8 h -1.599999 -1.6 v 1.6 1.6 h -1.6 -1.6 v 1.6 1.6 h -1.6 -1.6 v 1.6 1.599999 h 4.8 4.799999 z"
         style="fill:#a8a8a8;stroke-width:0.31999999" />
      <path
         inkscape:connector-curvature="0"
         id="path829-5"
         d="M 0,19.199999 V 0 H 19.199999 38.399998 V 1.5999999 3.1999998 H 20.799999 3.1999998 V 20.799999 38.399998 H 1.5999999 0 Z m 6.3999997,14.399999 v -1.6 h 1.5999999 1.5999999 v -1.599999 -1.6 h 1.5999995 1.6 v -1.6 -1.6 h 3.2 3.2 v 1.6 1.6 h -1.6 -1.6 v 1.6 1.599999 h -1.6 -1.6 v 1.6 1.6 H 9.5999995 6.3999997 Z M 19.199999,20.799999 v -1.6 h 1.6 1.6 v 1.6 1.6 h -1.6 -1.6 z m 6.4,-4.8 v -3.2 h 1.6 1.6 v -1.6 -1.5999995 h 1.6 1.599999 V 7.9999996 6.3999997 h 1.6 1.6 v 3.1999998 3.1999995 h -1.6 -1.6 v 1.6 1.6 h -1.599999 -1.6 v 1.6 1.6 h -1.6 -1.6 z"
         style="fill:#999999;stroke-width:0.31999999" />
      <path
         inkscape:connector-curvature="0"
         id="path827-6"
         d="m 6.3999997,28.799999 v -3.2 h 3.1999998 3.1999995 v 1.6 1.6 h -1.6 -1.5999995 v 1.6 1.599999 H 7.9999996 6.3999997 Z m 6.3999993,-8 v -1.6 h 1.6 1.6 v -1.6 -1.6 h 1.6 1.6 v -1.6 -1.6 h 1.6 1.6 v 3.2 3.2 h -1.6 -1.6 v 1.6 1.6 h -3.2 -3.2 z m 12.8,-11.1999995 V 6.3999997 h 3.2 3.199999 v 1.5999999 1.5999999 h -1.599999 -1.6 v 1.5999995 1.6 h -1.6 -1.6 z"
         style="fill:#898989;stroke-width:0.31999999" />
      <path
         inkscape:connector-curvature="0"
         id="path825-2"
         d="m 6.3999997,20.799999 v -1.6 h 1.5999999 1.5999999 v -1.6 -1.6 h 1.5999995 1.6 v -1.6 -1.6 h 1.6 1.6 v -1.6 -1.5999995 h 1.6 1.6 V 7.9999996 6.3999997 h 1.6 1.6 v 3.1999998 3.1999995 h -1.6 -1.6 v 1.6 1.6 h -1.6 -1.6 v 1.6 1.6 h -1.6 -1.6 v 1.6 1.6 H 9.5999995 6.3999997 Z"
         style="fill:#787878;stroke-width:0.31999999" />
      <path
         inkscape:connector-curvature="0"
         id="path823-9"
         d="m 6.3999997,15.999999 v -3.2 h 1.5999999 1.5999999 v -1.6 -1.5999995 h 1.5999995 1.6 V 7.9999996 6.3999997 h 3.2 3.2 v 1.5999999 1.5999999 h -1.6 -1.6 v 1.5999995 1.6 h -1.6 -1.6 v 1.6 1.6 h -1.6 -1.5999995 v 1.6 1.6 H 7.9999996 6.3999997 Z"
         style="fill:#676767;stroke-width:0.31999999" />
      <path
         inkscape:connector-curvature="0"
         id="path821-1"
         d="M 6.3999997,9.5999995 V 6.3999997 h 3.1999998 3.1999995 v 1.5999999 1.5999999 h -1.6 -1.5999995 v 1.5999995 1.6 H 7.9999996 6.3999997 Z"
         style="fill:#555555;stroke-width:0.31999999" />
      <path
         inkscape:connector-curvature="0"
         id="path819-2"
         d="M 3.1999998,20.799999 V 3.1999998 H 20.799999 38.399998 V 20.799999 38.399998 H 20.799999 3.1999998 Z m 31.9999982,0 V 6.3999997 h -4.799999 -4.8 v 9.5999993 9.6 h -9.6 -9.5999993 v 4.8 4.799999 H 20.799999 35.199998 Z m -12.799999,-6.4 V 6.3999997 h -8 -7.9999993 v 7.9999993 8 h 7.9999993 8 z"
         style="fill:#2c2c2c;stroke-width:0.31999999" />
    </g>
    <g
       id="pressed-center"
       transform="translate(22.303348,279.28073)">
      <path
         inkscape:connector-curvature="0"
         id="path837-67"
         d="m 0,39.999998 v -1.6 h 1.5999999 1.5999999 v 1.6 1.6 H 1.5999999 0 Z M 38.399998,1.5999999 V 0 h 1.6 1.6 v 1.5999999 1.5999999 h -1.6 -1.6 z"
         style="fill:#ffffff;stroke-width:0.31999999" />
      <path
         inkscape:connector-curvature="0"
         id="path835-5"
         d="m 3.1999998,39.999998 v -1.6 H 20.799999 38.399998 V 20.799999 3.1999998 h 1.6 1.6 V 22.399999 41.599998 H 22.399999 3.1999998 Z M 28.799999,30.399999 v -1.6 h 1.6 1.599999 v 1.6 1.599999 h -1.599999 -1.6 z M 6.3999997,7.9999996 V 6.3999997 H 7.9999996 9.5999995 V 7.9999996 9.5999995 H 7.9999996 6.3999997 Z"
         style="fill:#fefefe;stroke-width:0.31999999" />
      <path
         inkscape:connector-curvature="0"
         id="path833-3"
         d="m 22.399999,30.399999 v -1.6 h 1.6 1.6 v -1.6 -1.6 h 1.6 1.6 v -1.6 -1.6 h 1.6 1.599999 v 3.2 3.2 h -1.599999 -1.6 v 1.6 1.599999 h -3.2 -3.2 z"
         style="fill:#eeeeee;stroke-width:0.31999999" />
      <path
         inkscape:connector-curvature="0"
         id="path831-5"
         d="m 15.999999,30.399999 v -1.6 h 1.6 1.6 v -1.6 -1.6 h 3.2 3.2 v -3.2 -3.2 h 1.6 1.6 v -1.6 -1.6 h 1.6 1.599999 v 3.2 3.2 h -1.599999 -1.6 v 1.6 1.6 h -1.6 -1.6 v 1.6 1.6 h -1.6 -1.6 v 1.6 1.599999 h -3.2 -3.2 z"
         style="fill:#dddddd;stroke-width:0.31999999" />
      <path
         inkscape:connector-curvature="0"
         id="path829-6"
         d="m 6.3999997,30.399999 v -4.8 h 1.5999999 1.5999999 v 1.6 1.6 h 1.5999995 1.6 v -1.6 -1.6 h 3.2 3.2 v 1.6 1.6 h -1.6 -1.6 v 1.6 1.599999 h -3.2 -3.1999995 v 1.6 1.6 H 7.9999996 6.3999997 Z m 0,-14.4 V 9.5999995 H 7.9999996 9.5999995 V 7.9999996 6.3999997 h 6.3999995 6.4 v 1.5999999 1.5999999 h -6.4 -6.3999995 v 6.3999995 6.4 H 7.9999996 6.3999997 Z m 12.7999993,4.8 v -1.6 h 1.6 1.6 v 1.6 1.6 h -1.6 -1.6 z m 6.4,-4.8 v -3.2 h 1.6 1.6 v -1.6 -1.5999995 h -1.6 -1.6 V 7.9999996 6.3999997 h 4.8 4.799999 v 1.5999999 1.5999999 h -1.6 -1.6 v 3.1999995 3.2 h -1.599999 -1.6 v 1.6 1.6 h -1.6 -1.6 z"
         style="fill:#cccccc;stroke-width:0.31999999" />
      <path
         inkscape:connector-curvature="0"
         id="path827-2"
         d="m 9.5999995,27.199999 v -1.6 h 1.5999995 1.6 v 1.6 1.6 h -1.6 -1.5999995 z m 3.1999995,-6.4 v -1.6 h 1.6 1.6 v -1.6 -1.6 h 1.6 1.6 v -1.6 -1.6 h 1.6 1.6 v 3.2 3.2 h -1.6 -1.6 v 1.6 1.6 h -3.2 -3.2 z m 12.8,-9.6 V 9.5999995 h 1.6 1.6 v 1.5999995 1.6 h -1.6 -1.6 z"
         style="fill:#bbbbbb;stroke-width:0.31999999" />
      <path
         inkscape:connector-curvature="0"
         id="path825-9"
         d="m 9.5999995,19.199999 v -3.2 h 1.5999995 1.6 v -1.6 -1.6 h 1.6 1.6 v -1.6 -1.5999995 h 3.2 3.2 v 1.5999995 1.6 h -1.6 -1.6 v 1.6 1.6 h -1.6 -1.6 v 1.6 1.6 h -1.6 -1.6 v 1.6 1.6 h -1.6 -1.5999995 z"
         style="fill:#aaaaaa;stroke-width:0.31999999" />
      <path
         inkscape:connector-curvature="0"
         id="path823-1"
         d="M 9.5999995,12.799999 V 9.5999995 h 3.1999995 3.2 v 1.5999995 1.6 h -1.6 -1.6 v 1.6 1.6 h -1.6 -1.5999995 z"
         style="fill:#999999;stroke-width:0.31999999" />
      <path
         inkscape:connector-curvature="0"
         id="path821-2"
         d="M 0,19.199999 V 0 H 19.199999 38.399998 V 1.5999999 3.1999998 H 20.799999 3.1999998 V 20.799999 38.399998 H 1.5999999 0 Z m 9.5999995,14.399999 v -1.6 H 20.799999 31.999998 V 20.799999 9.5999995 h 1.6 1.6 V 22.399999 35.199998 H 22.399999 9.5999995 Z"
         style="fill:#888888;stroke-width:0.31999999" />
      <path
         inkscape:connector-curvature="0"
         id="path819-7"
         d="M 3.1999998,20.799999 V 3.1999998 H 20.799999 38.399998 V 20.799999 38.399998 H 20.799999 3.1999998 Z m 31.9999982,0 V 6.3999997 h -4.799999 -4.8 v 9.5999993 9.6 h -9.6 -9.5999993 v 4.8 4.799999 H 20.799999 35.199998 Z m -12.799999,-6.4 V 6.3999997 h -8 -7.9999993 v 7.9999993 8 h 7.9999993 8 z"
         style="fill:#1b1b1b;stroke-width:0.31999999" />
    </g>
    <g
       id="hover-center"
       transform="translate(-21.29665,279.28073)">
      <path
         inkscape:connector-curvature="0"
         id="path839-6"
         d="m 0,39.999998 v -1.6 h 1.5999999 1.5999999 v 1.6 1.6 H 1.5999999 0 Z M 38.399998,1.5999999 V 0 h 1.6 1.6 v 1.5999999 1.5999999 h -1.6 -1.6 z"
         style="fill:#ffffff;stroke-width:0.31999999" />
      <path
         inkscape:connector-curvature="0"
         id="path837-6-7"
         d="m 3.1999998,39.999998 v -1.6 H 20.799999 38.399998 V 20.799999 3.1999998 h 1.6 1.6 V 22.399999 41.599998 H 22.399999 3.1999998 Z"
         style="fill:#fefefe;stroke-width:0.31999999" />
      <path
         inkscape:connector-curvature="0"
         id="path835-7-5"
         d="m 28.799999,30.399999 v -1.6 h 1.6 1.599999 v 1.6 1.599999 h -1.599999 -1.6 z"
         style="fill:#c6c6c6;stroke-width:0.31999999" />
      <path
         inkscape:connector-curvature="0"
         id="path833-5-3"
         d="m 22.399999,30.399999 v -1.6 h 1.6 1.6 v -1.6 -1.6 h 1.6 1.6 v -1.6 -1.6 h 1.6 1.599999 v 3.2 3.2 h -1.599999 -1.6 v 1.6 1.599999 h -3.2 -3.2 z"
         style="fill:#b7b7b7;stroke-width:0.31999999" />
      <path
         inkscape:connector-curvature="0"
         id="path831-3-5"
         d="m 12.799999,33.599998 v -1.6 h 1.6 1.6 v -1.599999 -1.6 h 1.6 1.6 v -1.6 -1.6 h 3.2 3.2 v -3.2 -3.2 h 1.6 1.6 v -1.6 -1.6 h 1.6 1.599999 v -1.6 -1.6 h 1.6 1.6 v 11.2 11.199999 h -11.199999 -11.2 z m 19.199999,-6.399999 v -4.8 h -1.599999 -1.6 v 1.6 1.6 h -1.6 -1.6 v 1.6 1.6 h -1.6 -1.6 v 1.6 1.599999 h 4.8 4.799999 z"
         style="fill:#a8a8a8;stroke-width:0.31999999" />
      <path
         inkscape:connector-curvature="0"
         id="path829-5-6"
         d="M 0,19.199999 V 0 H 19.199999 38.399998 V 1.5999999 3.1999998 H 20.799999 3.1999998 V 20.799999 38.399998 H 1.5999999 0 Z m 6.3999997,14.399999 v -1.6 h 1.5999999 1.5999999 v -1.599999 -1.6 h 1.5999995 1.6 v -1.6 -1.6 h 3.2 3.2 v 1.6 1.6 h -1.6 -1.6 v 1.6 1.599999 h -1.6 -1.6 v 1.6 1.6 H 9.5999995 6.3999997 Z M 19.199999,20.799999 v -1.6 h 1.6 1.6 v 1.6 1.6 h -1.6 -1.6 z m 6.4,-4.8 v -3.2 h 1.6 1.6 v -1.6 -1.5999995 h 1.6 1.599999 V 7.9999996 6.3999997 h 1.6 1.6 v 3.1999998 3.1999995 h -1.6 -1.6 v 1.6 1.6 h -1.599999 -1.6 v 1.6 1.6 h -1.6 -1.6 z"
         style="fill:#999999;stroke-width:0.31999999" />
      <path
         inkscape:connector-curvature="0"
         id="path827-6-2"
         d="m 6.3999997,28.799999 v -3.2 h 3.1999998 3.1999995 v 1.6 1.6 h -1.6 -1.5999995 v 1.6 1.599999 H 7.9999996 6.3999997 Z m 6.3999993,-8 v -1.6 h 1.6 1.6 v -1.6 -1.6 h 1.6 1.6 v -1.6 -1.6 h 1.6 1.6 v 3.2 3.2 h -1.6 -1.6 v 1.6 1.6 h -3.2 -3.2 z m 12.8,-11.1999995 V 6.3999997 h 3.2 3.199999 v 1.5999999 1.5999999 h -1.599999 -1.6 v 1.5999995 1.6 h -1.6 -1.6 z"
         style="fill:#898989;stroke-width:0.31999999" />
      <path
         inkscape:connector-curvature="0"
         id="path825-2-9"
         d="m 6.3999997,20.799999 v -1.6 h 1.5999999 1.5999999 v -1.6 -1.6 h 1.5999995 1.6 v -1.6 -1.6 h 1.6 1.6 v -1.6 -1.5999995 h 1.6 1.6 V 7.9999996 6.3999997 h 1.6 1.6 v 3.1999998 3.1999995 h -1.6 -1.6 v 1.6 1.6 h -1.6 -1.6 v 1.6 1.6 h -1.6 -1.6 v 1.6 1.6 H 9.5999995 6.3999997 Z"
         style="fill:#787878;stroke-width:0.31999999" />
      <path
         inkscape:connector-curvature="0"
         id="path823-9-1"
         d="m 6.3999997,15.999999 v -3.2 h 1.5999999 1.5999999 v -1.6 -1.5999995 h 1.5999995 1.6 V 7.9999996 6.3999997 h 3.2 3.2 v 1.5999999 1.5999999 h -1.6 -1.6 v 1.5999995 1.6 h -1.6 -1.6 v 1.6 1.6 h -1.6 -1.5999995 v 1.6 1.6 H 7.9999996 6.3999997 Z"
         style="fill:#676767;stroke-width:0.31999999" />
      <path
         inkscape:connector-curvature="0"
         id="path821-1-2"
         d="M 6.3999997,9.5999995 V 6.3999997 h 3.1999998 3.1999995 v 1.5999999 1.5999999 h -1.6 -1.5999995 v 1.5999995 1.6 H 7.9999996 6.3999997 Z"
         style="fill:#555555;stroke-width:0.31999999" />
      <path
         inkscape:connector-curvature="0"
         id="path819-2-7"
         d="M 3.1999998,20.799999 V 3.1999998 H 20.799999 38.399998 V 20.799999 38.399998 H 20.799999 3.1999998 Z m 31.9999982,0 V 6.3999997 h -4.799999 -4.8 v 9.5999993 9.6 h -9.6 -9.5999993 v 4.8 4.799999 H 20.799999 35.199998 Z m -12.799999,-6.4 V 6.3999997 h -8 -7.9999993 v 7.9999993 8 h 7.9999993 8 z"
         style="fill:#2c2c2c;stroke-width:0.31999999" />
    </g>
    <path
       inkscape:connector-curvature="0"
       id="inactive-center"
       d="m 65.552532,299.88072 v -20.8 h 20.8 20.799998 v 20.8 20.8 h -20.799998 -20.8 z"
       style="opacity:0;fill:#dddddd;fill-opacity:1;stroke-width:0.31999999" />
    <path
       inkscape:connector-curvature="0"
       id="deactivated-center"
       d="m 109.15253,299.88072 v -20.8 h 20.8 20.80001 v 20.8 20.8 h -20.8 -20.80001 z"
       style="opacity:0;fill:#dddddd;fill-opacity:1;stroke-width:0.31999999"
       inkscape:transform-center-x="60.858586"
       inkscape:transform-center-y="-17.929293" />
  </g>
</svg>
